<svg width="74" height="26" viewBox="0 0 74 26" fill="none" xmlns="http://www.w3.org/2000/svg">
<rect width="74" height="26" rx="13" fill="#FF561D"/>
<path d="M17.293 11.656C17.293 12.1153 17.1847 12.5487 16.968 12.956C16.7513 13.3633 16.4047 13.697 15.928 13.957C15.4513 14.2083 14.8403 14.334 14.095 14.334H12.457V18H10.975V8.965H14.095C14.7883 8.965 15.3733 9.08633 15.85 9.329C16.3353 9.563 16.695 9.88367 16.929 10.291C17.1717 10.6983 17.293 11.1533 17.293 11.656ZM14.095 13.125C14.6583 13.125 15.0787 12.9993 15.356 12.748C15.6333 12.488 15.772 12.124 15.772 11.656C15.772 10.668 15.213 10.174 14.095 10.174H12.457V13.125H14.095ZM25.1934 10.837V18H23.7114V17.155C23.4774 17.4497 23.1698 17.6837 22.7884 17.857C22.4158 18.0217 22.0171 18.104 21.5924 18.104C21.0291 18.104 20.5221 17.987 20.0714 17.753C19.6294 17.519 19.2784 17.1723 19.0184 16.713C18.7671 16.2537 18.6414 15.699 18.6414 15.049V10.837H20.1104V14.828C20.1104 15.4693 20.2708 15.9633 20.5914 16.31C20.9121 16.648 21.3498 16.817 21.9044 16.817C22.4591 16.817 22.8968 16.648 23.2174 16.31C23.5468 15.9633 23.7114 15.4693 23.7114 14.828V10.837H25.1934ZM28.6308 11.903C28.8822 11.5563 29.2245 11.2747 29.6578 11.058C30.0998 10.8327 30.5895 10.72 31.1268 10.72C31.7595 10.72 32.3315 10.8717 32.8428 11.175C33.3542 11.4783 33.7572 11.9117 34.0518 12.475C34.3465 13.0297 34.4938 13.6667 34.4938 14.386C34.4938 15.1053 34.3465 15.751 34.0518 16.323C33.7572 16.8863 33.3498 17.3283 32.8298 17.649C32.3185 17.961 31.7508 18.117 31.1268 18.117C30.5722 18.117 30.0782 18.0087 29.6448 17.792C29.2202 17.5753 28.8822 17.298 28.6308 16.96V18H27.1488V8.38H28.6308V11.903ZM32.9858 14.386C32.9858 13.892 32.8818 13.4673 32.6738 13.112C32.4745 12.748 32.2058 12.475 31.8678 12.293C31.5385 12.1023 31.1832 12.007 30.8018 12.007C30.4292 12.007 30.0738 12.1023 29.7358 12.293C29.4065 12.4837 29.1378 12.761 28.9298 13.125C28.7305 13.489 28.6308 13.918 28.6308 14.412C28.6308 14.906 28.7305 15.3393 28.9298 15.712C29.1378 16.076 29.4065 16.3533 29.7358 16.544C30.0738 16.7347 30.4292 16.83 30.8018 16.83C31.1832 16.83 31.5385 16.7347 31.8678 16.544C32.2058 16.3447 32.4745 16.0587 32.6738 15.686C32.8818 15.3133 32.9858 14.88 32.9858 14.386ZM37.4414 8.38V18H35.9594V8.38H37.4414ZM40.1411 9.888C39.8724 9.888 39.6471 9.797 39.4651 9.615C39.2831 9.433 39.1921 9.20767 39.1921 8.939C39.1921 8.67033 39.2831 8.445 39.4651 8.263C39.6471 8.081 39.8724 7.99 40.1411 7.99C40.4011 7.99 40.6221 8.081 40.8041 8.263C40.9861 8.445 41.0771 8.67033 41.0771 8.939C41.0771 9.20767 40.9861 9.433 40.8041 9.615C40.6221 9.797 40.4011 9.888 40.1411 9.888ZM40.8691 10.837V18H39.3871V10.837H40.8691ZM42.3208 14.412C42.3208 13.6753 42.4682 13.0297 42.7628 12.475C43.0662 11.9117 43.4822 11.4783 44.0108 11.175C44.5395 10.8717 45.1462 10.72 45.8308 10.72C46.6975 10.72 47.4125 10.928 47.9758 11.344C48.5478 11.7513 48.9335 12.3363 49.1328 13.099H47.5338C47.4038 12.7437 47.1958 12.4663 46.9098 12.267C46.6238 12.0677 46.2642 11.968 45.8308 11.968C45.2242 11.968 44.7388 12.1847 44.3748 12.618C44.0195 13.0427 43.8418 13.6407 43.8418 14.412C43.8418 15.1833 44.0195 15.7857 44.3748 16.219C44.7388 16.6523 45.2242 16.869 45.8308 16.869C46.6888 16.869 47.2565 16.492 47.5338 15.738H49.1328C48.9248 16.466 48.5348 17.0467 47.9628 17.48C47.3908 17.9047 46.6802 18.117 45.8308 18.117C45.1462 18.117 44.5395 17.9653 44.0108 17.662C43.4822 17.35 43.0662 16.9167 42.7628 16.362C42.4682 15.7987 42.3208 15.1487 42.3208 14.412ZM50.1158 14.386C50.1158 13.6667 50.2631 13.0297 50.5578 12.475C50.8611 11.9203 51.2684 11.4913 51.7798 11.188C52.2998 10.876 52.8718 10.72 53.4958 10.72C54.0591 10.72 54.5488 10.8327 54.9648 11.058C55.3894 11.2747 55.7274 11.5477 55.9788 11.877V10.837H57.4738V18H55.9788V16.934C55.7274 17.272 55.3851 17.5537 54.9518 17.779C54.5184 18.0043 54.0244 18.117 53.4698 18.117C52.8544 18.117 52.2911 17.961 51.7798 17.649C51.2684 17.3283 50.8611 16.8863 50.5578 16.323C50.2631 15.751 50.1158 15.1053 50.1158 14.386ZM55.9788 14.412C55.9788 13.918 55.8748 13.489 55.6668 13.125C55.4674 12.761 55.2031 12.4837 54.8738 12.293C54.5444 12.1023 54.1891 12.007 53.8078 12.007C53.4264 12.007 53.0711 12.1023 52.7418 12.293C52.4124 12.475 52.1438 12.748 51.9358 13.112C51.7364 13.4673 51.6368 13.892 51.6368 14.386C51.6368 14.88 51.7364 15.3133 51.9358 15.686C52.1438 16.0587 52.4124 16.3447 52.7418 16.544C53.0798 16.7347 53.4351 16.83 53.8078 16.83C54.1891 16.83 54.5444 16.7347 54.8738 16.544C55.2031 16.3533 55.4674 16.076 55.6668 15.712C55.8748 15.3393 55.9788 14.906 55.9788 14.412ZM60.9023 11.877C61.119 11.513 61.405 11.2313 61.7603 11.032C62.1243 10.824 62.5533 10.72 63.0473 10.72V12.254H62.6703C62.0896 12.254 61.6476 12.4013 61.3443 12.696C61.0496 12.9907 60.9023 13.502 60.9023 14.23V18H59.4203V10.837H60.9023V11.877Z" fill="#F9F9F9"/>
</svg>
