<svg width="207" height="337" viewBox="0 0 207 337" fill="none" xmlns="http://www.w3.org/2000/svg">
<path d="M51.717 17.395V19.67H54.772V21.113H51.717V23.518H55.162V25H49.897V15.913H55.162V17.395H51.717ZM59.5719 25.117C58.9826 25.117 58.4539 25.013 57.9859 24.805C57.5179 24.5883 57.1453 24.298 56.8679 23.934C56.5993 23.57 56.4519 23.167 56.4259 22.725H58.2589C58.2936 23.0023 58.4279 23.232 58.6619 23.414C58.9046 23.596 59.2036 23.687 59.5589 23.687C59.9056 23.687 60.1743 23.6177 60.3649 23.479C60.5643 23.3403 60.6639 23.1627 60.6639 22.946C60.6639 22.712 60.5426 22.5387 60.2999 22.426C60.0659 22.3047 59.6889 22.1747 59.1689 22.036C58.6316 21.906 58.1896 21.7717 57.8429 21.633C57.5049 21.4943 57.2103 21.282 56.9589 20.996C56.7163 20.71 56.5949 20.3243 56.5949 19.839C56.5949 19.4403 56.7076 19.0763 56.9329 18.747C57.1669 18.4177 57.4963 18.1577 57.9209 17.967C58.3543 17.7763 58.8613 17.681 59.4419 17.681C60.2999 17.681 60.9846 17.8977 61.4959 18.331C62.0073 18.7557 62.2889 19.332 62.3409 20.06H60.5989C60.5729 19.774 60.4516 19.5487 60.2349 19.384C60.0269 19.2107 59.7453 19.124 59.3899 19.124C59.0606 19.124 58.8049 19.1847 58.6229 19.306C58.4496 19.4273 58.3629 19.5963 58.3629 19.813C58.3629 20.0557 58.4843 20.242 58.7269 20.372C58.9696 20.4933 59.3466 20.619 59.8579 20.749C60.3779 20.879 60.8069 21.0133 61.1449 21.152C61.4829 21.2907 61.7733 21.5073 62.0159 21.802C62.2673 22.088 62.3973 22.4693 62.4059 22.946C62.4059 23.362 62.2889 23.7347 62.0549 24.064C61.8296 24.3933 61.5003 24.6533 61.0669 24.844C60.6423 25.026 60.1439 25.117 59.5719 25.117ZM63.4319 21.399C63.4319 20.6537 63.5836 20.0037 63.8869 19.449C64.1903 18.8857 64.6106 18.4523 65.1479 18.149C65.6853 17.837 66.3006 17.681 66.9939 17.681C67.8866 17.681 68.6233 17.9063 69.2039 18.357C69.7933 18.799 70.1876 19.423 70.3869 20.229H68.4239C68.3199 19.917 68.1423 19.6743 67.8909 19.501C67.6483 19.319 67.3449 19.228 66.9809 19.228C66.4609 19.228 66.0493 19.4187 65.7459 19.8C65.4426 20.1727 65.2909 20.7057 65.2909 21.399C65.2909 22.0837 65.4426 22.6167 65.7459 22.998C66.0493 23.3707 66.4609 23.557 66.9809 23.557C67.7176 23.557 68.1986 23.2277 68.4239 22.569H70.3869C70.1876 23.349 69.7933 23.9687 69.2039 24.428C68.6146 24.8873 67.8779 25.117 66.9939 25.117C66.3006 25.117 65.6853 24.9653 65.1479 24.662C64.6106 24.35 64.1903 23.9167 63.8869 23.362C63.5836 22.7987 63.4319 22.1443 63.4319 21.399ZM74.9182 25.117C74.2249 25.117 73.6009 24.9653 73.0462 24.662C72.4916 24.35 72.0539 23.9123 71.7332 23.349C71.4212 22.7857 71.2652 22.1357 71.2652 21.399C71.2652 20.6623 71.4256 20.0123 71.7462 19.449C72.0756 18.8857 72.5219 18.4523 73.0852 18.149C73.6486 17.837 74.2769 17.681 74.9702 17.681C75.6636 17.681 76.2919 17.837 76.8552 18.149C77.4186 18.4523 77.8606 18.8857 78.1812 19.449C78.5106 20.0123 78.6752 20.6623 78.6752 21.399C78.6752 22.1357 78.5062 22.7857 78.1682 23.349C77.8389 23.9123 77.3882 24.35 76.8162 24.662C76.2529 24.9653 75.6202 25.117 74.9182 25.117ZM74.9182 23.531C75.2476 23.531 75.5552 23.453 75.8412 23.297C76.1359 23.1323 76.3699 22.8897 76.5432 22.569C76.7166 22.2483 76.8032 21.8583 76.8032 21.399C76.8032 20.7143 76.6212 20.19 76.2572 19.826C75.9019 19.4533 75.4642 19.267 74.9442 19.267C74.4242 19.267 73.9866 19.4533 73.6312 19.826C73.2846 20.19 73.1112 20.7143 73.1112 21.399C73.1112 22.0837 73.2802 22.6123 73.6182 22.985C73.9649 23.349 74.3982 23.531 74.9182 23.531ZM81.8303 15.38V25H80.0103V15.38H81.8303ZM87.6844 17.694C88.2304 17.694 88.7158 17.8153 89.1404 18.058C89.5651 18.292 89.8944 18.643 90.1284 19.111C90.3711 19.5703 90.4924 20.125 90.4924 20.775V25H88.6724V21.022C88.6724 20.45 88.5294 20.0123 88.2434 19.709C87.9574 19.397 87.5674 19.241 87.0734 19.241C86.5708 19.241 86.1721 19.397 85.8774 19.709C85.5914 20.0123 85.4484 20.45 85.4484 21.022V25H83.6284V15.38H85.4484V18.695C85.6824 18.383 85.9944 18.1403 86.3844 17.967C86.7744 17.785 87.2078 17.694 87.6844 17.694ZM91.7552 21.373C91.7552 20.645 91.8982 19.9993 92.1842 19.436C92.4788 18.8727 92.8732 18.4393 93.3672 18.136C93.8698 17.8327 94.4288 17.681 95.0442 17.681C95.5815 17.681 96.0495 17.7893 96.4482 18.006C96.8555 18.2227 97.1805 18.4957 97.4232 18.825V17.798H99.2562V25H97.4232V23.947C97.1892 24.285 96.8642 24.5667 96.4482 24.792C96.0408 25.0087 95.5685 25.117 95.0312 25.117C94.4245 25.117 93.8698 24.961 93.3672 24.649C92.8732 24.337 92.4788 23.8993 92.1842 23.336C91.8982 22.764 91.7552 22.1097 91.7552 21.373ZM97.4232 21.399C97.4232 20.957 97.3365 20.58 97.1632 20.268C96.9898 19.9473 96.7558 19.7047 96.4612 19.54C96.1665 19.3667 95.8502 19.28 95.5122 19.28C95.1742 19.28 94.8622 19.3623 94.5762 19.527C94.2902 19.6917 94.0562 19.9343 93.8742 20.255C93.7008 20.567 93.6142 20.9397 93.6142 21.373C93.6142 21.8063 93.7008 22.1877 93.8742 22.517C94.0562 22.8377 94.2902 23.0847 94.5762 23.258C94.8708 23.4313 95.1828 23.518 95.5122 23.518C95.8502 23.518 96.1665 23.4357 96.4612 23.271C96.7558 23.0977 96.9898 22.855 97.1632 22.543C97.3365 22.2223 97.4232 21.841 97.4232 21.399ZM110.93 17.798V25H109.097V24.09C108.863 24.402 108.556 24.649 108.174 24.831C107.802 25.0043 107.394 25.091 106.952 25.091C106.389 25.091 105.891 24.974 105.457 24.74C105.024 24.4973 104.682 24.1463 104.43 23.687C104.188 23.219 104.066 22.6643 104.066 22.023V17.798H105.886V21.763C105.886 22.335 106.029 22.777 106.315 23.089C106.601 23.3923 106.991 23.544 107.485 23.544C107.988 23.544 108.382 23.3923 108.668 23.089C108.954 22.777 109.097 22.335 109.097 21.763V17.798H110.93ZM121.67 17.694C122.554 17.694 123.265 17.967 123.802 18.513C124.348 19.0503 124.621 19.8043 124.621 20.775V25H122.801V21.022C122.801 20.4587 122.658 20.0297 122.372 19.735C122.086 19.4317 121.696 19.28 121.202 19.28C120.708 19.28 120.314 19.4317 120.019 19.735C119.733 20.0297 119.59 20.4587 119.59 21.022V25H117.77V21.022C117.77 20.4587 117.627 20.0297 117.341 19.735C117.055 19.4317 116.665 19.28 116.171 19.28C115.668 19.28 115.27 19.4317 114.975 19.735C114.689 20.0297 114.546 20.4587 114.546 21.022V25H112.726V17.798H114.546V18.669C114.78 18.3657 115.079 18.1273 115.443 17.954C115.816 17.7807 116.223 17.694 116.665 17.694C117.228 17.694 117.731 17.8153 118.173 18.058C118.615 18.292 118.957 18.63 119.2 19.072C119.434 18.656 119.772 18.3223 120.214 18.071C120.665 17.8197 121.15 17.694 121.67 17.694ZM125.88 21.373C125.88 20.645 126.023 19.9993 126.309 19.436C126.604 18.8727 126.998 18.4393 127.492 18.136C127.995 17.8327 128.554 17.681 129.169 17.681C129.707 17.681 130.175 17.7893 130.573 18.006C130.981 18.2227 131.306 18.4957 131.548 18.825V17.798H133.381V25H131.548V23.947C131.314 24.285 130.989 24.5667 130.573 24.792C130.166 25.0087 129.694 25.117 129.156 25.117C128.55 25.117 127.995 24.961 127.492 24.649C126.998 24.337 126.604 23.8993 126.309 23.336C126.023 22.764 125.88 22.1097 125.88 21.373ZM131.548 21.399C131.548 20.957 131.462 20.58 131.288 20.268C131.115 19.9473 130.881 19.7047 130.586 19.54C130.292 19.3667 129.975 19.28 129.637 19.28C129.299 19.28 128.987 19.3623 128.701 19.527C128.415 19.6917 128.181 19.9343 127.999 20.255C127.826 20.567 127.739 20.9397 127.739 21.373C127.739 21.8063 127.826 22.1877 127.999 22.517C128.181 22.8377 128.415 23.0847 128.701 23.258C128.996 23.4313 129.308 23.518 129.637 23.518C129.975 23.518 130.292 23.4357 130.586 23.271C130.881 23.0977 131.115 22.855 131.288 22.543C131.462 22.2223 131.548 21.841 131.548 21.399ZM137.788 21.399C137.788 20.6537 137.94 20.0037 138.243 19.449C138.547 18.8857 138.967 18.4523 139.504 18.149C140.042 17.837 140.657 17.681 141.35 17.681C142.243 17.681 142.98 17.9063 143.56 18.357C144.15 18.799 144.544 19.423 144.743 20.229H142.78C142.676 19.917 142.499 19.6743 142.247 19.501C142.005 19.319 141.701 19.228 141.337 19.228C140.817 19.228 140.406 19.4187 140.102 19.8C139.799 20.1727 139.647 20.7057 139.647 21.399C139.647 22.0837 139.799 22.6167 140.102 22.998C140.406 23.3707 140.817 23.557 141.337 23.557C142.074 23.557 142.555 23.2277 142.78 22.569H144.743C144.544 23.349 144.15 23.9687 143.56 24.428C142.971 24.8873 142.234 25.117 141.35 25.117C140.657 25.117 140.042 24.9653 139.504 24.662C138.967 24.35 138.547 23.9167 138.243 23.362C137.94 22.7987 137.788 22.1443 137.788 21.399ZM145.609 21.373C145.609 20.645 145.752 19.9993 146.038 19.436C146.332 18.8727 146.727 18.4393 147.221 18.136C147.723 17.8327 148.282 17.681 148.898 17.681C149.435 17.681 149.903 17.7893 150.302 18.006C150.709 18.2227 151.034 18.4957 151.277 18.825V17.798H153.11V25H151.277V23.947C151.043 24.285 150.718 24.5667 150.302 24.792C149.894 25.0087 149.422 25.117 148.885 25.117C148.278 25.117 147.723 24.961 147.221 24.649C146.727 24.337 146.332 23.8993 146.038 23.336C145.752 22.764 145.609 22.1097 145.609 21.373ZM151.277 21.399C151.277 20.957 151.19 20.58 151.017 20.268C150.843 19.9473 150.609 19.7047 150.315 19.54C150.02 19.3667 149.704 19.28 149.366 19.28C149.028 19.28 148.716 19.3623 148.43 19.527C148.144 19.6917 147.91 19.9343 147.728 20.255C147.554 20.567 147.468 20.9397 147.468 21.373C147.468 21.8063 147.554 22.1877 147.728 22.517C147.91 22.8377 148.144 23.0847 148.43 23.258C148.724 23.4313 149.036 23.518 149.366 23.518C149.704 23.518 150.02 23.4357 150.315 23.271C150.609 23.0977 150.843 22.855 151.017 22.543C151.19 22.2223 151.277 21.841 151.277 21.399ZM157.006 19.293V22.777C157.006 23.0197 157.063 23.1973 157.175 23.31C157.297 23.414 157.496 23.466 157.773 23.466H158.618V25H157.474C155.94 25 155.173 24.2547 155.173 22.764V19.293H154.315V17.798H155.173V16.017H157.006V17.798H158.618V19.293H157.006ZM166.622 21.243C166.622 21.503 166.605 21.737 166.57 21.945H161.305C161.349 22.465 161.531 22.8723 161.851 23.167C162.172 23.4617 162.566 23.609 163.034 23.609C163.71 23.609 164.191 23.3187 164.477 22.738H166.44C166.232 23.4313 165.834 24.0033 165.244 24.454C164.655 24.896 163.931 25.117 163.073 25.117C162.38 25.117 161.756 24.9653 161.201 24.662C160.655 24.35 160.226 23.9123 159.914 23.349C159.611 22.7857 159.459 22.1357 159.459 21.399C159.459 20.6537 159.611 19.9993 159.914 19.436C160.218 18.8727 160.642 18.4393 161.188 18.136C161.734 17.8327 162.363 17.681 163.073 17.681C163.758 17.681 164.369 17.8283 164.906 18.123C165.452 18.4177 165.873 18.838 166.167 19.384C166.471 19.9213 166.622 20.541 166.622 21.243ZM164.737 20.723C164.729 20.255 164.56 19.8823 164.23 19.605C163.901 19.319 163.498 19.176 163.021 19.176C162.571 19.176 162.189 19.3147 161.877 19.592C161.574 19.8607 161.388 20.2377 161.318 20.723H164.737ZM170.772 17.681C171.309 17.681 171.781 17.7893 172.189 18.006C172.596 18.214 172.917 18.487 173.151 18.825V17.798H174.984V25.052C174.984 25.7193 174.849 26.313 174.581 26.833C174.312 27.3617 173.909 27.7777 173.372 28.081C172.834 28.393 172.184 28.549 171.422 28.549C170.399 28.549 169.558 28.3107 168.9 27.834C168.25 27.3573 167.881 26.7073 167.795 25.884H169.602C169.697 26.2133 169.901 26.4733 170.213 26.664C170.533 26.8633 170.919 26.963 171.37 26.963C171.898 26.963 172.327 26.8027 172.657 26.482C172.986 26.17 173.151 25.6933 173.151 25.052V23.934C172.917 24.272 172.592 24.5537 172.176 24.779C171.768 25.0043 171.3 25.117 170.772 25.117C170.165 25.117 169.61 24.961 169.108 24.649C168.605 24.337 168.206 23.8993 167.912 23.336C167.626 22.764 167.483 22.1097 167.483 21.373C167.483 20.645 167.626 19.9993 167.912 19.436C168.206 18.8727 168.601 18.4393 169.095 18.136C169.597 17.8327 170.156 17.681 170.772 17.681ZM173.151 21.399C173.151 20.957 173.064 20.58 172.891 20.268C172.717 19.9473 172.483 19.7047 172.189 19.54C171.894 19.3667 171.578 19.28 171.24 19.28C170.902 19.28 170.59 19.3623 170.304 19.527C170.018 19.6917 169.784 19.9343 169.602 20.255C169.428 20.567 169.342 20.9397 169.342 21.373C169.342 21.8063 169.428 22.1877 169.602 22.517C169.784 22.8377 170.018 23.0847 170.304 23.258C170.598 23.4313 170.91 23.518 171.24 23.518C171.578 23.518 171.894 23.4357 172.189 23.271C172.483 23.0977 172.717 22.855 172.891 22.543C173.064 22.2223 173.151 21.841 173.151 21.399ZM179.959 25.117C179.266 25.117 178.642 24.9653 178.087 24.662C177.533 24.35 177.095 23.9123 176.774 23.349C176.462 22.7857 176.306 22.1357 176.306 21.399C176.306 20.6623 176.467 20.0123 176.787 19.449C177.117 18.8857 177.563 18.4523 178.126 18.149C178.69 17.837 179.318 17.681 180.011 17.681C180.705 17.681 181.333 17.837 181.896 18.149C182.46 18.4523 182.902 18.8857 183.222 19.449C183.552 20.0123 183.716 20.6623 183.716 21.399C183.716 22.1357 183.547 22.7857 183.209 23.349C182.88 23.9123 182.429 24.35 181.857 24.662C181.294 24.9653 180.661 25.117 179.959 25.117ZM179.959 23.531C180.289 23.531 180.596 23.453 180.882 23.297C181.177 23.1323 181.411 22.8897 181.584 22.569C181.758 22.2483 181.844 21.8583 181.844 21.399C181.844 20.7143 181.662 20.19 181.298 19.826C180.943 19.4533 180.505 19.267 179.985 19.267C179.465 19.267 179.028 19.4533 178.672 19.826C178.326 20.19 178.152 20.7143 178.152 21.399C178.152 22.0837 178.321 22.6123 178.659 22.985C179.006 23.349 179.439 23.531 179.959 23.531ZM186.871 18.916C187.105 18.5347 187.409 18.2357 187.781 18.019C188.163 17.8023 188.596 17.694 189.081 17.694V19.605H188.6C188.028 19.605 187.595 19.7393 187.3 20.008C187.014 20.2767 186.871 20.7447 186.871 21.412V25H185.051V17.798H186.871V18.916ZM191.23 16.94C190.909 16.94 190.641 16.8403 190.424 16.641C190.216 16.433 190.112 16.1773 190.112 15.874C190.112 15.5707 190.216 15.3193 190.424 15.12C190.641 14.912 190.909 14.808 191.23 14.808C191.551 14.808 191.815 14.912 192.023 15.12C192.24 15.3193 192.348 15.5707 192.348 15.874C192.348 16.1773 192.24 16.433 192.023 16.641C191.815 16.8403 191.551 16.94 191.23 16.94ZM192.127 17.798V25H190.307V17.798H192.127ZM193.457 21.373C193.457 20.645 193.6 19.9993 193.886 19.436C194.181 18.8727 194.575 18.4393 195.069 18.136C195.572 17.8327 196.131 17.681 196.746 17.681C197.284 17.681 197.752 17.7893 198.15 18.006C198.558 18.2227 198.883 18.4957 199.125 18.825V17.798H200.958V25H199.125V23.947C198.891 24.285 198.566 24.5667 198.15 24.792C197.743 25.0087 197.271 25.117 196.733 25.117C196.127 25.117 195.572 24.961 195.069 24.649C194.575 24.337 194.181 23.8993 193.886 23.336C193.6 22.764 193.457 22.1097 193.457 21.373ZM199.125 21.399C199.125 20.957 199.039 20.58 198.865 20.268C198.692 19.9473 198.458 19.7047 198.163 19.54C197.869 19.3667 197.552 19.28 197.214 19.28C196.876 19.28 196.564 19.3623 196.278 19.527C195.992 19.6917 195.758 19.9343 195.576 20.255C195.403 20.567 195.316 20.9397 195.316 21.373C195.316 21.8063 195.403 22.1877 195.576 22.517C195.758 22.8377 195.992 23.0847 196.278 23.258C196.573 23.4313 196.885 23.518 197.214 23.518C197.552 23.518 197.869 23.4357 198.163 23.271C198.458 23.0977 198.692 22.855 198.865 22.543C199.039 22.2223 199.125 21.841 199.125 21.399Z" fill="#1E1E1E"/>
<path d="M51.717 66.395V68.67H54.772V70.113H51.717V72.518H55.162V74H49.897V64.913H55.162V66.395H51.717ZM59.5719 74.117C58.9826 74.117 58.4539 74.013 57.9859 73.805C57.5179 73.5883 57.1453 73.298 56.8679 72.934C56.5993 72.57 56.4519 72.167 56.4259 71.725H58.2589C58.2936 72.0023 58.4279 72.232 58.6619 72.414C58.9046 72.596 59.2036 72.687 59.5589 72.687C59.9056 72.687 60.1743 72.6177 60.3649 72.479C60.5643 72.3403 60.6639 72.1627 60.6639 71.946C60.6639 71.712 60.5426 71.5387 60.2999 71.426C60.0659 71.3047 59.6889 71.1747 59.1689 71.036C58.6316 70.906 58.1896 70.7717 57.8429 70.633C57.5049 70.4943 57.2103 70.282 56.9589 69.996C56.7163 69.71 56.5949 69.3243 56.5949 68.839C56.5949 68.4403 56.7076 68.0763 56.9329 67.747C57.1669 67.4177 57.4963 67.1577 57.9209 66.967C58.3543 66.7763 58.8613 66.681 59.4419 66.681C60.2999 66.681 60.9846 66.8977 61.4959 67.331C62.0073 67.7557 62.2889 68.332 62.3409 69.06H60.5989C60.5729 68.774 60.4516 68.5487 60.2349 68.384C60.0269 68.2107 59.7453 68.124 59.3899 68.124C59.0606 68.124 58.8049 68.1847 58.6229 68.306C58.4496 68.4273 58.3629 68.5963 58.3629 68.813C58.3629 69.0557 58.4843 69.242 58.7269 69.372C58.9696 69.4933 59.3466 69.619 59.8579 69.749C60.3779 69.879 60.8069 70.0133 61.1449 70.152C61.4829 70.2907 61.7733 70.5073 62.0159 70.802C62.2673 71.088 62.3973 71.4693 62.4059 71.946C62.4059 72.362 62.2889 72.7347 62.0549 73.064C61.8296 73.3933 61.5003 73.6533 61.0669 73.844C60.6423 74.026 60.1439 74.117 59.5719 74.117ZM63.4319 70.399C63.4319 69.6537 63.5836 69.0037 63.8869 68.449C64.1903 67.8857 64.6106 67.4523 65.1479 67.149C65.6853 66.837 66.3006 66.681 66.9939 66.681C67.8866 66.681 68.6233 66.9063 69.2039 67.357C69.7933 67.799 70.1876 68.423 70.3869 69.229H68.4239C68.3199 68.917 68.1423 68.6743 67.8909 68.501C67.6483 68.319 67.3449 68.228 66.9809 68.228C66.4609 68.228 66.0493 68.4187 65.7459 68.8C65.4426 69.1727 65.2909 69.7057 65.2909 70.399C65.2909 71.0837 65.4426 71.6167 65.7459 71.998C66.0493 72.3707 66.4609 72.557 66.9809 72.557C67.7176 72.557 68.1986 72.2277 68.4239 71.569H70.3869C70.1876 72.349 69.7933 72.9687 69.2039 73.428C68.6146 73.8873 67.8779 74.117 66.9939 74.117C66.3006 74.117 65.6853 73.9653 65.1479 73.662C64.6106 73.35 64.1903 72.9167 63.8869 72.362C63.5836 71.7987 63.4319 71.1443 63.4319 70.399ZM73.5402 67.916C73.7742 67.5347 74.0776 67.2357 74.4502 67.019C74.8316 66.8023 75.2649 66.694 75.7502 66.694V68.605H75.2692C74.6972 68.605 74.2639 68.7393 73.9692 69.008C73.6832 69.2767 73.5402 69.7447 73.5402 70.412V74H71.7202V66.798H73.5402V67.916ZM83.6711 70.243C83.6711 70.503 83.6538 70.737 83.6191 70.945H78.3541C78.3974 71.465 78.5794 71.8723 78.9001 72.167C79.2208 72.4617 79.6151 72.609 80.0831 72.609C80.7591 72.609 81.2401 72.3187 81.5261 71.738H83.4891C83.2811 72.4313 82.8824 73.0033 82.2931 73.454C81.7038 73.896 80.9801 74.117 80.1221 74.117C79.4288 74.117 78.8048 73.9653 78.2501 73.662C77.7041 73.35 77.2751 72.9123 76.9631 72.349C76.6598 71.7857 76.5081 71.1357 76.5081 70.399C76.5081 69.6537 76.6598 68.9993 76.9631 68.436C77.2664 67.8727 77.6911 67.4393 78.2371 67.136C78.7831 66.8327 79.4114 66.681 80.1221 66.681C80.8068 66.681 81.4178 66.8283 81.9551 67.123C82.5011 67.4177 82.9214 67.838 83.2161 68.384C83.5194 68.9213 83.6711 69.541 83.6711 70.243ZM81.7861 69.723C81.7774 69.255 81.6084 68.8823 81.2791 68.605C80.9498 68.319 80.5468 68.176 80.0701 68.176C79.6194 68.176 79.2381 68.3147 78.9261 68.592C78.6228 68.8607 78.4364 69.2377 78.3671 69.723H81.7861ZM88.0025 72.323L89.8225 66.798H91.7595L89.0945 74H86.8845L84.2325 66.798H86.1825L88.0025 72.323ZM92.3138 70.373C92.3138 69.645 92.4568 68.9993 92.7428 68.436C93.0374 67.8727 93.4318 67.4393 93.9258 67.136C94.4284 66.8327 94.9874 66.681 95.6028 66.681C96.1401 66.681 96.6081 66.7893 97.0068 67.006C97.4141 67.2227 97.7391 67.4957 97.9818 67.825V66.798H99.8148V74H97.9818V72.947C97.7478 73.285 97.4228 73.5667 97.0068 73.792C96.5994 74.0087 96.1271 74.117 95.5898 74.117C94.9831 74.117 94.4284 73.961 93.9258 73.649C93.4318 73.337 93.0374 72.8993 92.7428 72.336C92.4568 71.764 92.3138 71.1097 92.3138 70.373ZM97.9818 70.399C97.9818 69.957 97.8951 69.58 97.7218 69.268C97.5484 68.9473 97.3144 68.7047 97.0198 68.54C96.7251 68.3667 96.4088 68.28 96.0708 68.28C95.7328 68.28 95.4208 68.3623 95.1348 68.527C94.8488 68.6917 94.6148 68.9343 94.4328 69.255C94.2594 69.567 94.1728 69.9397 94.1728 70.373C94.1728 70.8063 94.2594 71.1877 94.4328 71.517C94.6148 71.8377 94.8488 72.0847 95.1348 72.258C95.4294 72.4313 95.7414 72.518 96.0708 72.518C96.4088 72.518 96.7251 72.4357 97.0198 72.271C97.3144 72.0977 97.5484 71.855 97.7218 71.543C97.8951 71.2223 97.9818 70.841 97.9818 70.399ZM107.888 74.117C107.195 74.117 106.571 73.9653 106.016 73.662C105.461 73.35 105.024 72.9123 104.703 72.349C104.391 71.7857 104.235 71.1357 104.235 70.399C104.235 69.6623 104.395 69.0123 104.716 68.449C105.045 67.8857 105.492 67.4523 106.055 67.149C106.618 66.837 107.247 66.681 107.94 66.681C108.633 66.681 109.262 66.837 109.825 67.149C110.388 67.4523 110.83 67.8857 111.151 68.449C111.48 69.0123 111.645 69.6623 111.645 70.399C111.645 71.1357 111.476 71.7857 111.138 72.349C110.809 72.9123 110.358 73.35 109.786 73.662C109.223 73.9653 108.59 74.117 107.888 74.117ZM107.888 72.531C108.217 72.531 108.525 72.453 108.811 72.297C109.106 72.1323 109.34 71.8897 109.513 71.569C109.686 71.2483 109.773 70.8583 109.773 70.399C109.773 69.7143 109.591 69.19 109.227 68.826C108.872 68.4533 108.434 68.267 107.914 68.267C107.394 68.267 106.956 68.4533 106.601 68.826C106.254 69.19 106.081 69.7143 106.081 70.399C106.081 71.0837 106.25 71.6123 106.588 71.985C106.935 72.349 107.368 72.531 107.888 72.531ZM118.197 68.293V71.777C118.197 72.0197 118.253 72.1973 118.366 72.31C118.487 72.414 118.686 72.466 118.964 72.466H119.809V74H118.665C117.131 74 116.364 73.2547 116.364 71.764V68.293H115.506V66.798H116.364V65.017H118.197V66.798H119.809V68.293H118.197ZM123.016 66.798V74H121.196V66.798H123.016ZM123.523 64.926L120.533 66.291V64.991L123.523 63.444V64.926ZM127.007 68.293V71.777C127.007 72.0197 127.064 72.1973 127.176 72.31C127.298 72.414 127.497 72.466 127.774 72.466H128.619V74H127.475C125.941 74 125.174 73.2547 125.174 71.764V68.293H124.316V66.798H125.174V65.017H127.007V66.798H128.619V68.293H127.007ZM136.727 66.798V74H134.894V73.09C134.66 73.402 134.353 73.649 133.971 73.831C133.599 74.0043 133.191 74.091 132.749 74.091C132.186 74.091 131.688 73.974 131.254 73.74C130.821 73.4973 130.479 73.1463 130.227 72.687C129.985 72.219 129.863 71.6643 129.863 71.023V66.798H131.683V70.763C131.683 71.335 131.826 71.777 132.112 72.089C132.398 72.3923 132.788 72.544 133.282 72.544C133.785 72.544 134.179 72.3923 134.465 72.089C134.751 71.777 134.894 71.335 134.894 70.763V66.798H136.727ZM140.343 64.38V74H138.523V64.38H140.343ZM145.339 74.117C144.646 74.117 144.022 73.9653 143.467 73.662C142.912 73.35 142.475 72.9123 142.154 72.349C141.842 71.7857 141.686 71.1357 141.686 70.399C141.686 69.6623 141.846 69.0123 142.167 68.449C142.496 67.8857 142.943 67.4523 143.506 67.149C144.069 66.837 144.698 66.681 145.391 66.681C146.084 66.681 146.713 66.837 147.276 67.149C147.839 67.4523 148.281 67.8857 148.602 68.449C148.931 69.0123 149.096 69.6623 149.096 70.399C149.096 71.1357 148.927 71.7857 148.589 72.349C148.26 72.9123 147.809 73.35 147.237 73.662C146.674 73.9653 146.041 74.117 145.339 74.117ZM145.339 72.531C145.668 72.531 145.976 72.453 146.262 72.297C146.557 72.1323 146.791 71.8897 146.964 71.569C147.137 71.2483 147.224 70.8583 147.224 70.399C147.224 69.7143 147.042 69.19 146.678 68.826C146.323 68.4533 145.885 68.267 145.365 68.267C144.845 68.267 144.407 68.4533 144.052 68.826C143.705 69.19 143.532 69.7143 143.532 70.399C143.532 71.0837 143.701 71.6123 144.039 71.985C144.386 72.349 144.819 72.531 145.339 72.531ZM153.061 70.373C153.061 69.645 153.204 68.9993 153.49 68.436C153.785 67.8727 154.183 67.4393 154.686 67.136C155.189 66.8327 155.748 66.681 156.363 66.681C156.831 66.681 157.277 66.785 157.702 66.993C158.127 67.1923 158.465 67.461 158.716 67.799V64.38H160.562V74H158.716V72.934C158.491 73.2893 158.174 73.5753 157.767 73.792C157.36 74.0087 156.887 74.117 156.35 74.117C155.743 74.117 155.189 73.961 154.686 73.649C154.183 73.337 153.785 72.8993 153.49 72.336C153.204 71.764 153.061 71.1097 153.061 70.373ZM158.729 70.399C158.729 69.957 158.642 69.58 158.469 69.268C158.296 68.9473 158.062 68.7047 157.767 68.54C157.472 68.3667 157.156 68.28 156.818 68.28C156.48 68.28 156.168 68.3623 155.882 68.527C155.596 68.6917 155.362 68.9343 155.18 69.255C155.007 69.567 154.92 69.9397 154.92 70.373C154.92 70.8063 155.007 71.1877 155.18 71.517C155.362 71.8377 155.596 72.0847 155.882 72.258C156.177 72.4313 156.489 72.518 156.818 72.518C157.156 72.518 157.472 72.4357 157.767 72.271C158.062 72.0977 158.296 71.855 158.469 71.543C158.642 71.2223 158.729 70.841 158.729 70.399ZM161.871 70.373C161.871 69.645 162.014 68.9993 162.3 68.436C162.595 67.8727 162.989 67.4393 163.483 67.136C163.986 66.8327 164.545 66.681 165.16 66.681C165.698 66.681 166.166 66.7893 166.564 67.006C166.972 67.2227 167.297 67.4957 167.539 67.825V66.798H169.372V74H167.539V72.947C167.305 73.285 166.98 73.5667 166.564 73.792C166.157 74.0087 165.685 74.117 165.147 74.117C164.541 74.117 163.986 73.961 163.483 73.649C162.989 73.337 162.595 72.8993 162.3 72.336C162.014 71.764 161.871 71.1097 161.871 70.373ZM167.539 70.399C167.539 69.957 167.453 69.58 167.279 69.268C167.106 68.9473 166.872 68.7047 166.577 68.54C166.283 68.3667 165.966 68.28 165.628 68.28C165.29 68.28 164.978 68.3623 164.692 68.527C164.406 68.6917 164.172 68.9343 163.99 69.255C163.817 69.567 163.73 69.9397 163.73 70.373C163.73 70.8063 163.817 71.1877 163.99 71.517C164.172 71.8377 164.406 72.0847 164.692 72.258C164.987 72.4313 165.299 72.518 165.628 72.518C165.966 72.518 166.283 72.4357 166.577 72.271C166.872 72.0977 167.106 71.855 167.279 71.543C167.453 71.2223 167.539 70.841 167.539 70.399ZM177.004 74.117C176.414 74.117 175.886 74.013 175.418 73.805C174.95 73.5883 174.577 73.298 174.3 72.934C174.031 72.57 173.884 72.167 173.858 71.725H175.691C175.725 72.0023 175.86 72.232 176.094 72.414C176.336 72.596 176.635 72.687 176.991 72.687C177.337 72.687 177.606 72.6177 177.797 72.479C177.996 72.3403 178.096 72.1627 178.096 71.946C178.096 71.712 177.974 71.5387 177.732 71.426C177.498 71.3047 177.121 71.1747 176.601 71.036C176.063 70.906 175.621 70.7717 175.275 70.633C174.937 70.4943 174.642 70.282 174.391 69.996C174.148 69.71 174.027 69.3243 174.027 68.839C174.027 68.4403 174.139 68.0763 174.365 67.747C174.599 67.4177 174.928 67.1577 175.353 66.967C175.786 66.7763 176.293 66.681 176.874 66.681C177.732 66.681 178.416 66.8977 178.928 67.331C179.439 67.7557 179.721 68.332 179.773 69.06H178.031C178.005 68.774 177.883 68.5487 177.667 68.384C177.459 68.2107 177.177 68.124 176.822 68.124C176.492 68.124 176.237 68.1847 176.055 68.306C175.881 68.4273 175.795 68.5963 175.795 68.813C175.795 69.0557 175.916 69.242 176.159 69.372C176.401 69.4933 176.778 69.619 177.29 69.749C177.81 69.879 178.239 70.0133 178.577 70.152C178.915 70.2907 179.205 70.5073 179.448 70.802C179.699 71.088 179.829 71.4693 179.838 71.946C179.838 72.362 179.721 72.7347 179.487 73.064C179.261 73.3933 178.932 73.6533 178.499 73.844C178.074 74.026 177.576 74.117 177.004 74.117ZM188.131 66.798V74H186.298V73.09C186.064 73.402 185.756 73.649 185.375 73.831C185.002 74.0043 184.595 74.091 184.153 74.091C183.589 74.091 183.091 73.974 182.658 73.74C182.224 73.4973 181.882 73.1463 181.631 72.687C181.388 72.219 181.267 71.6643 181.267 71.023V66.798H183.087V70.763C183.087 71.335 183.23 71.777 183.516 72.089C183.802 72.3923 184.192 72.544 184.686 72.544C185.188 72.544 185.583 72.3923 185.869 72.089C186.155 71.777 186.298 71.335 186.298 70.763V66.798H188.131ZM189.458 70.373C189.458 69.645 189.601 68.9993 189.887 68.436C190.182 67.8727 190.576 67.4393 191.07 67.136C191.573 66.8327 192.132 66.681 192.747 66.681C193.285 66.681 193.753 66.7893 194.151 67.006C194.559 67.2227 194.884 67.4957 195.126 67.825V66.798H196.959V74H195.126V72.947C194.892 73.285 194.567 73.5667 194.151 73.792C193.744 74.0087 193.272 74.117 192.734 74.117C192.128 74.117 191.573 73.961 191.07 73.649C190.576 73.337 190.182 72.8993 189.887 72.336C189.601 71.764 189.458 71.1097 189.458 70.373ZM195.126 70.399C195.126 69.957 195.04 69.58 194.866 69.268C194.693 68.9473 194.459 68.7047 194.164 68.54C193.87 68.3667 193.553 68.28 193.215 68.28C192.877 68.28 192.565 68.3623 192.279 68.527C191.993 68.6917 191.759 68.9343 191.577 69.255C191.404 69.567 191.317 69.9397 191.317 70.373C191.317 70.8063 191.404 71.1877 191.577 71.517C191.759 71.8377 191.993 72.0847 192.279 72.258C192.574 72.4313 192.886 72.518 193.215 72.518C193.553 72.518 193.87 72.4357 194.164 72.271C194.459 72.0977 194.693 71.855 194.866 71.543C195.04 71.2223 195.126 70.841 195.126 70.399ZM53.888 86.694C54.746 86.694 55.4393 86.967 55.968 87.513C56.4967 88.0503 56.761 88.8043 56.761 89.775V94H54.941V90.022C54.941 89.45 54.798 89.0123 54.512 88.709C54.226 88.397 53.836 88.241 53.342 88.241C52.8393 88.241 52.4407 88.397 52.146 88.709C51.86 89.0123 51.717 89.45 51.717 90.022V94H49.897V86.798H51.717V87.695C51.9597 87.383 52.2673 87.1403 52.64 86.967C53.0213 86.785 53.4373 86.694 53.888 86.694ZM61.6897 94.117C60.9964 94.117 60.3724 93.9653 59.8177 93.662C59.2631 93.35 58.8254 92.9123 58.5047 92.349C58.1927 91.7857 58.0367 91.1357 58.0367 90.399C58.0367 89.6623 58.1971 89.0123 58.5177 88.449C58.8471 87.8857 59.2934 87.4523 59.8567 87.149C60.4201 86.837 61.0484 86.681 61.7417 86.681C62.4351 86.681 63.0634 86.837 63.6267 87.149C64.1901 87.4523 64.6321 87.8857 64.9527 88.449C65.2821 89.0123 65.4467 89.6623 65.4467 90.399C65.4467 91.1357 65.2777 91.7857 64.9397 92.349C64.6104 92.9123 64.1597 93.35 63.5877 93.662C63.0244 93.9653 62.3917 94.117 61.6897 94.117ZM61.6897 92.531C62.0191 92.531 62.3267 92.453 62.6127 92.297C62.9074 92.1323 63.1414 91.8897 63.3147 91.569C63.4881 91.2483 63.5747 90.8583 63.5747 90.399C63.5747 89.7143 63.3927 89.19 63.0287 88.826C62.6734 88.4533 62.2357 88.267 61.7157 88.267C61.1957 88.267 60.7581 88.4533 60.4027 88.826C60.0561 89.19 59.8827 89.7143 59.8827 90.399C59.8827 91.0837 60.0517 91.6123 60.3897 91.985C60.7364 92.349 61.1697 92.531 61.6897 92.531ZM68.9008 88.293V91.777C68.9008 92.0197 68.9571 92.1973 69.0698 92.31C69.1911 92.414 69.3904 92.466 69.6678 92.466H70.5128V94H69.3688C67.8348 94 67.0678 93.2547 67.0678 91.764V88.293H66.2098V86.798H67.0678V85.017H68.9008V86.798H70.5128V88.293H68.9008ZM73.7198 86.798V94H71.8998V86.798H73.7198ZM74.2268 84.926L71.2368 86.291V84.991L74.2268 83.444V84.926ZM75.1243 90.399C75.1243 89.6537 75.276 89.0037 75.5793 88.449C75.8826 87.8857 76.303 87.4523 76.8403 87.149C77.3776 86.837 77.993 86.681 78.6863 86.681C79.579 86.681 80.3156 86.9063 80.8963 87.357C81.4856 87.799 81.88 88.423 82.0793 89.229H80.1163C80.0123 88.917 79.8346 88.6743 79.5833 88.501C79.3406 88.319 79.0373 88.228 78.6733 88.228C78.1533 88.228 77.7416 88.4187 77.4383 88.8C77.135 89.1727 76.9833 89.7057 76.9833 90.399C76.9833 91.0837 77.135 91.6167 77.4383 91.998C77.7416 92.3707 78.1533 92.557 78.6733 92.557C79.41 92.557 79.891 92.2277 80.1163 91.569H82.0793C81.88 92.349 81.4856 92.9687 80.8963 93.428C80.307 93.8873 79.5703 94.117 78.6863 94.117C77.993 94.117 77.3776 93.9653 76.8403 93.662C76.303 93.35 75.8826 92.9167 75.5793 92.362C75.276 91.7987 75.1243 91.1443 75.1243 90.399ZM84.3356 85.94C84.015 85.94 83.7463 85.8403 83.5296 85.641C83.3216 85.433 83.2176 85.1773 83.2176 84.874C83.2176 84.5707 83.3216 84.3193 83.5296 84.12C83.7463 83.912 84.015 83.808 84.3356 83.808C84.6563 83.808 84.9206 83.912 85.1286 84.12C85.3453 84.3193 85.4536 84.5707 85.4536 84.874C85.4536 85.1773 85.3453 85.433 85.1286 85.641C84.9206 85.8403 84.6563 85.94 84.3356 85.94ZM85.2326 86.798V94H83.4126V86.798H85.2326ZM86.5628 90.373C86.5628 89.645 86.7058 88.9993 86.9918 88.436C87.2865 87.8727 87.6808 87.4393 88.1748 87.136C88.6775 86.8327 89.2365 86.681 89.8518 86.681C90.3891 86.681 90.8571 86.7893 91.2558 87.006C91.6631 87.2227 91.9881 87.4957 92.2308 87.825V86.798H94.0638V94H92.2308V92.947C91.9968 93.285 91.6718 93.5667 91.2558 93.792C90.8485 94.0087 90.3761 94.117 89.8388 94.117C89.2321 94.117 88.6775 93.961 88.1748 93.649C87.6808 93.337 87.2865 92.8993 86.9918 92.336C86.7058 91.764 86.5628 91.1097 86.5628 90.373ZM92.2308 90.399C92.2308 89.957 92.1441 89.58 91.9708 89.268C91.7975 88.9473 91.5635 88.7047 91.2688 88.54C90.9741 88.3667 90.6578 88.28 90.3198 88.28C89.9818 88.28 89.6698 88.3623 89.3838 88.527C89.0978 88.6917 88.8638 88.9343 88.6818 89.255C88.5085 89.567 88.4218 89.9397 88.4218 90.373C88.4218 90.8063 88.5085 91.1877 88.6818 91.517C88.8638 91.8377 89.0978 92.0847 89.3838 92.258C89.6785 92.4313 89.9905 92.518 90.3198 92.518C90.6578 92.518 90.9741 92.4357 91.2688 92.271C91.5635 92.0977 91.7975 91.855 91.9708 91.543C92.1441 91.2223 92.2308 90.841 92.2308 90.399Z" fill="#1E1E1E"/>
<path d="M51.717 135.395V137.67H54.772V139.113H51.717V141.518H55.162V143H49.897V133.913H55.162V135.395H51.717ZM59.5719 143.117C58.9826 143.117 58.4539 143.013 57.9859 142.805C57.5179 142.588 57.1453 142.298 56.8679 141.934C56.5993 141.57 56.4519 141.167 56.4259 140.725H58.2589C58.2936 141.002 58.4279 141.232 58.6619 141.414C58.9046 141.596 59.2036 141.687 59.5589 141.687C59.9056 141.687 60.1743 141.618 60.3649 141.479C60.5643 141.34 60.6639 141.163 60.6639 140.946C60.6639 140.712 60.5426 140.539 60.2999 140.426C60.0659 140.305 59.6889 140.175 59.1689 140.036C58.6316 139.906 58.1896 139.772 57.8429 139.633C57.5049 139.494 57.2103 139.282 56.9589 138.996C56.7163 138.71 56.5949 138.324 56.5949 137.839C56.5949 137.44 56.7076 137.076 56.9329 136.747C57.1669 136.418 57.4963 136.158 57.9209 135.967C58.3543 135.776 58.8613 135.681 59.4419 135.681C60.2999 135.681 60.9846 135.898 61.4959 136.331C62.0073 136.756 62.2889 137.332 62.3409 138.06H60.5989C60.5729 137.774 60.4516 137.549 60.2349 137.384C60.0269 137.211 59.7453 137.124 59.3899 137.124C59.0606 137.124 58.8049 137.185 58.6229 137.306C58.4496 137.427 58.3629 137.596 58.3629 137.813C58.3629 138.056 58.4843 138.242 58.7269 138.372C58.9696 138.493 59.3466 138.619 59.8579 138.749C60.3779 138.879 60.8069 139.013 61.1449 139.152C61.4829 139.291 61.7733 139.507 62.0159 139.802C62.2673 140.088 62.3973 140.469 62.4059 140.946C62.4059 141.362 62.2889 141.735 62.0549 142.064C61.8296 142.393 61.5003 142.653 61.0669 142.844C60.6423 143.026 60.1439 143.117 59.5719 143.117ZM63.4319 139.399C63.4319 138.654 63.5836 138.004 63.8869 137.449C64.1903 136.886 64.6106 136.452 65.1479 136.149C65.6853 135.837 66.3006 135.681 66.9939 135.681C67.8866 135.681 68.6233 135.906 69.2039 136.357C69.7933 136.799 70.1876 137.423 70.3869 138.229H68.4239C68.3199 137.917 68.1423 137.674 67.8909 137.501C67.6483 137.319 67.3449 137.228 66.9809 137.228C66.4609 137.228 66.0493 137.419 65.7459 137.8C65.4426 138.173 65.2909 138.706 65.2909 139.399C65.2909 140.084 65.4426 140.617 65.7459 140.998C66.0493 141.371 66.4609 141.557 66.9809 141.557C67.7176 141.557 68.1986 141.228 68.4239 140.569H70.3869C70.1876 141.349 69.7933 141.969 69.2039 142.428C68.6146 142.887 67.8779 143.117 66.9939 143.117C66.3006 143.117 65.6853 142.965 65.1479 142.662C64.6106 142.35 64.1903 141.917 63.8869 141.362C63.5836 140.799 63.4319 140.144 63.4319 139.399ZM73.5402 136.916C73.7742 136.535 74.0776 136.236 74.4502 136.019C74.8316 135.802 75.2649 135.694 75.7502 135.694V137.605H75.2692C74.6972 137.605 74.2639 137.739 73.9692 138.008C73.6832 138.277 73.5402 138.745 73.5402 139.412V143H71.7202V135.798H73.5402V136.916ZM83.6711 139.243C83.6711 139.503 83.6538 139.737 83.6191 139.945H78.3541C78.3974 140.465 78.5794 140.872 78.9001 141.167C79.2208 141.462 79.6151 141.609 80.0831 141.609C80.7591 141.609 81.2401 141.319 81.5261 140.738H83.4891C83.2811 141.431 82.8824 142.003 82.2931 142.454C81.7038 142.896 80.9801 143.117 80.1221 143.117C79.4288 143.117 78.8048 142.965 78.2501 142.662C77.7041 142.35 77.2751 141.912 76.9631 141.349C76.6598 140.786 76.5081 140.136 76.5081 139.399C76.5081 138.654 76.6598 137.999 76.9631 137.436C77.2664 136.873 77.6911 136.439 78.2371 136.136C78.7831 135.833 79.4114 135.681 80.1221 135.681C80.8068 135.681 81.4178 135.828 81.9551 136.123C82.5011 136.418 82.9214 136.838 83.2161 137.384C83.5194 137.921 83.6711 138.541 83.6711 139.243ZM81.7861 138.723C81.7774 138.255 81.6084 137.882 81.2791 137.605C80.9498 137.319 80.5468 137.176 80.0701 137.176C79.6194 137.176 79.2381 137.315 78.9261 137.592C78.6228 137.861 78.4364 138.238 78.3671 138.723H81.7861ZM88.0025 141.323L89.8225 135.798H91.7595L89.0945 143H86.8845L84.2325 135.798H86.1825L88.0025 141.323ZM92.3138 139.373C92.3138 138.645 92.4568 137.999 92.7428 137.436C93.0374 136.873 93.4318 136.439 93.9258 136.136C94.4284 135.833 94.9874 135.681 95.6028 135.681C96.1401 135.681 96.6081 135.789 97.0068 136.006C97.4141 136.223 97.7391 136.496 97.9818 136.825V135.798H99.8148V143H97.9818V141.947C97.7478 142.285 97.4228 142.567 97.0068 142.792C96.5994 143.009 96.1271 143.117 95.5898 143.117C94.9831 143.117 94.4284 142.961 93.9258 142.649C93.4318 142.337 93.0374 141.899 92.7428 141.336C92.4568 140.764 92.3138 140.11 92.3138 139.373ZM97.9818 139.399C97.9818 138.957 97.8951 138.58 97.7218 138.268C97.5484 137.947 97.3144 137.705 97.0198 137.54C96.7251 137.367 96.4088 137.28 96.0708 137.28C95.7328 137.28 95.4208 137.362 95.1348 137.527C94.8488 137.692 94.6148 137.934 94.4328 138.255C94.2594 138.567 94.1728 138.94 94.1728 139.373C94.1728 139.806 94.2594 140.188 94.4328 140.517C94.6148 140.838 94.8488 141.085 95.1348 141.258C95.4294 141.431 95.7414 141.518 96.0708 141.518C96.4088 141.518 96.7251 141.436 97.0198 141.271C97.3144 141.098 97.5484 140.855 97.7218 140.543C97.8951 140.222 97.9818 139.841 97.9818 139.399ZM111.489 135.798V143H109.656V142.09C109.422 142.402 109.114 142.649 108.733 142.831C108.36 143.004 107.953 143.091 107.511 143.091C106.948 143.091 106.449 142.974 106.016 142.74C105.583 142.497 105.24 142.146 104.989 141.687C104.746 141.219 104.625 140.664 104.625 140.023V135.798H106.445V139.763C106.445 140.335 106.588 140.777 106.874 141.089C107.16 141.392 107.55 141.544 108.044 141.544C108.547 141.544 108.941 141.392 109.227 141.089C109.513 140.777 109.656 140.335 109.656 139.763V135.798H111.489ZM122.229 135.694C123.113 135.694 123.823 135.967 124.361 136.513C124.907 137.05 125.18 137.804 125.18 138.775V143H123.36V139.022C123.36 138.459 123.217 138.03 122.931 137.735C122.645 137.432 122.255 137.28 121.761 137.28C121.267 137.28 120.872 137.432 120.578 137.735C120.292 138.03 120.149 138.459 120.149 139.022V143H118.329V139.022C118.329 138.459 118.186 138.03 117.9 137.735C117.614 137.432 117.224 137.28 116.73 137.28C116.227 137.28 115.828 137.432 115.534 137.735C115.248 138.03 115.105 138.459 115.105 139.022V143H113.285V135.798H115.105V136.669C115.339 136.366 115.638 136.127 116.002 135.954C116.374 135.781 116.782 135.694 117.224 135.694C117.787 135.694 118.29 135.815 118.732 136.058C119.174 136.292 119.516 136.63 119.759 137.072C119.993 136.656 120.331 136.322 120.773 136.071C121.223 135.82 121.709 135.694 122.229 135.694ZM126.439 139.373C126.439 138.645 126.582 137.999 126.868 137.436C127.162 136.873 127.557 136.439 128.051 136.136C128.553 135.833 129.112 135.681 129.728 135.681C130.265 135.681 130.733 135.789 131.132 136.006C131.539 136.223 131.864 136.496 132.107 136.825V135.798H133.94V143H132.107V141.947C131.873 142.285 131.548 142.567 131.132 142.792C130.724 143.009 130.252 143.117 129.715 143.117C129.108 143.117 128.553 142.961 128.051 142.649C127.557 142.337 127.162 141.899 126.868 141.336C126.582 140.764 126.439 140.11 126.439 139.373ZM132.107 139.399C132.107 138.957 132.02 138.58 131.847 138.268C131.673 137.947 131.439 137.705 131.145 137.54C130.85 137.367 130.534 137.28 130.196 137.28C129.858 137.28 129.546 137.362 129.26 137.527C128.974 137.692 128.74 137.934 128.558 138.255C128.384 138.567 128.298 138.94 128.298 139.373C128.298 139.806 128.384 140.188 128.558 140.517C128.74 140.838 128.974 141.085 129.26 141.258C129.554 141.431 129.866 141.518 130.196 141.518C130.534 141.518 130.85 141.436 131.145 141.271C131.439 141.098 131.673 140.855 131.847 140.543C132.02 140.222 132.107 139.841 132.107 139.399ZM138.347 139.373C138.347 138.645 138.49 137.999 138.776 137.436C139.071 136.873 139.469 136.439 139.972 136.136C140.475 135.833 141.034 135.681 141.649 135.681C142.117 135.681 142.563 135.785 142.988 135.993C143.413 136.192 143.751 136.461 144.002 136.799V133.38H145.848V143H144.002V141.934C143.777 142.289 143.46 142.575 143.053 142.792C142.646 143.009 142.173 143.117 141.636 143.117C141.029 143.117 140.475 142.961 139.972 142.649C139.469 142.337 139.071 141.899 138.776 141.336C138.49 140.764 138.347 140.11 138.347 139.373ZM144.015 139.399C144.015 138.957 143.928 138.58 143.755 138.268C143.582 137.947 143.348 137.705 143.053 137.54C142.758 137.367 142.442 137.28 142.104 137.28C141.766 137.28 141.454 137.362 141.168 137.527C140.882 137.692 140.648 137.934 140.466 138.255C140.293 138.567 140.206 138.94 140.206 139.373C140.206 139.806 140.293 140.188 140.466 140.517C140.648 140.838 140.882 141.085 141.168 141.258C141.463 141.431 141.775 141.518 142.104 141.518C142.442 141.518 142.758 141.436 143.053 141.271C143.348 141.098 143.582 140.855 143.755 140.543C143.928 140.222 144.015 139.841 144.015 139.399ZM154.321 139.243C154.321 139.503 154.303 139.737 154.269 139.945H149.004C149.047 140.465 149.229 140.872 149.55 141.167C149.87 141.462 150.265 141.609 150.733 141.609C151.409 141.609 151.89 141.319 152.176 140.738H154.139C153.931 141.431 153.532 142.003 152.943 142.454C152.353 142.896 151.63 143.117 150.772 143.117C150.078 143.117 149.454 142.965 148.9 142.662C148.354 142.35 147.925 141.912 147.613 141.349C147.309 140.786 147.158 140.136 147.158 139.399C147.158 138.654 147.309 137.999 147.613 137.436C147.916 136.873 148.341 136.439 148.887 136.136C149.433 135.833 150.061 135.681 150.772 135.681C151.456 135.681 152.067 135.828 152.605 136.123C153.151 136.418 153.571 136.838 153.866 137.384C154.169 137.921 154.321 138.541 154.321 139.243ZM152.436 138.723C152.427 138.255 152.258 137.882 151.929 137.605C151.599 137.319 151.196 137.176 150.72 137.176C150.269 137.176 149.888 137.315 149.576 137.592C149.272 137.861 149.086 138.238 149.017 138.723H152.436ZM158.405 143.117C157.816 143.117 157.287 143.013 156.819 142.805C156.351 142.588 155.978 142.298 155.701 141.934C155.432 141.57 155.285 141.167 155.259 140.725H157.092C157.127 141.002 157.261 141.232 157.495 141.414C157.738 141.596 158.037 141.687 158.392 141.687C158.739 141.687 159.007 141.618 159.198 141.479C159.397 141.34 159.497 141.163 159.497 140.946C159.497 140.712 159.376 140.539 159.133 140.426C158.899 140.305 158.522 140.175 158.002 140.036C157.465 139.906 157.023 139.772 156.676 139.633C156.338 139.494 156.043 139.282 155.792 138.996C155.549 138.71 155.428 138.324 155.428 137.839C155.428 137.44 155.541 137.076 155.766 136.747C156 136.418 156.329 136.158 156.754 135.967C157.187 135.776 157.694 135.681 158.275 135.681C159.133 135.681 159.818 135.898 160.329 136.331C160.84 136.756 161.122 137.332 161.174 138.06H159.432C159.406 137.774 159.285 137.549 159.068 137.384C158.86 137.211 158.578 137.124 158.223 137.124C157.894 137.124 157.638 137.185 157.456 137.306C157.283 137.427 157.196 137.596 157.196 137.813C157.196 138.056 157.317 138.242 157.56 138.372C157.803 138.493 158.18 138.619 158.691 138.749C159.211 138.879 159.64 139.013 159.978 139.152C160.316 139.291 160.606 139.507 160.849 139.802C161.1 140.088 161.23 140.469 161.239 140.946C161.239 141.362 161.122 141.735 160.888 142.064C160.663 142.393 160.333 142.653 159.9 142.844C159.475 143.026 158.977 143.117 158.405 143.117ZM162.265 139.399C162.265 138.654 162.417 138.004 162.72 137.449C163.023 136.886 163.444 136.452 163.981 136.149C164.518 135.837 165.134 135.681 165.827 135.681C166.72 135.681 167.456 135.906 168.037 136.357C168.626 136.799 169.021 137.423 169.22 138.229H167.257C167.153 137.917 166.975 137.674 166.724 137.501C166.481 137.319 166.178 137.228 165.814 137.228C165.294 137.228 164.882 137.419 164.579 137.8C164.276 138.173 164.124 138.706 164.124 139.399C164.124 140.084 164.276 140.617 164.579 140.998C164.882 141.371 165.294 141.557 165.814 141.557C166.551 141.557 167.032 141.228 167.257 140.569H169.22C169.021 141.349 168.626 141.969 168.037 142.428C167.448 142.887 166.711 143.117 165.827 143.117C165.134 143.117 164.518 142.965 163.981 142.662C163.444 142.35 163.023 141.917 162.72 141.362C162.417 140.799 162.265 140.144 162.265 139.399ZM172.373 136.916C172.607 136.535 172.911 136.236 173.283 136.019C173.665 135.802 174.098 135.694 174.583 135.694V137.605H174.102C173.53 137.605 173.097 137.739 172.802 138.008C172.516 138.277 172.373 138.745 172.373 139.412V143H170.553V135.798H172.373V136.916ZM176.732 134.94C176.411 134.94 176.143 134.84 175.926 134.641C175.718 134.433 175.614 134.177 175.614 133.874C175.614 133.571 175.718 133.319 175.926 133.12C176.143 132.912 176.411 132.808 176.732 132.808C177.053 132.808 177.317 132.912 177.525 133.12C177.742 133.319 177.85 133.571 177.85 133.874C177.85 134.177 177.742 134.433 177.525 134.641C177.317 134.84 177.053 134.94 176.732 134.94ZM177.629 135.798V143H175.809V135.798H177.629ZM182.508 141.557C183.245 141.557 183.726 141.228 183.951 140.569H185.914C185.732 141.271 185.394 141.843 184.9 142.285C184.415 142.727 183.804 142.991 183.067 143.078V143.585C183.544 143.585 183.943 143.706 184.263 143.949C184.593 144.192 184.757 144.543 184.757 145.002C184.757 145.47 184.588 145.83 184.25 146.081C183.921 146.332 183.514 146.458 183.028 146.458H181.182V145.392H182.729C182.937 145.392 183.093 145.362 183.197 145.301C183.31 145.24 183.366 145.132 183.366 144.976C183.366 144.82 183.31 144.712 183.197 144.651C183.093 144.599 182.937 144.573 182.729 144.573H181.923V143.078C181.334 142.991 180.814 142.788 180.363 142.467C179.921 142.138 179.575 141.713 179.323 141.193C179.081 140.664 178.959 140.066 178.959 139.399C178.959 138.654 179.111 138.004 179.414 137.449C179.718 136.886 180.138 136.452 180.675 136.149C181.213 135.837 181.828 135.681 182.521 135.681C183.414 135.681 184.151 135.906 184.731 136.357C185.321 136.799 185.715 137.423 185.914 138.229H183.951C183.847 137.917 183.67 137.674 183.418 137.501C183.176 137.319 182.872 137.228 182.508 137.228C181.988 137.228 181.577 137.419 181.273 137.8C180.97 138.173 180.818 138.706 180.818 139.399C180.818 140.084 180.97 140.617 181.273 140.998C181.577 141.371 181.988 141.557 182.508 141.557ZM186.78 139.373C186.78 138.645 186.923 137.999 187.209 137.436C187.503 136.873 187.898 136.439 188.392 136.136C188.894 135.833 189.453 135.681 190.069 135.681C190.606 135.681 191.074 135.789 191.473 136.006C191.88 136.223 192.205 136.496 192.448 136.825V135.798H194.281V143H192.448V141.947C192.214 142.285 191.889 142.567 191.473 142.792C191.065 143.009 190.593 143.117 190.056 143.117C189.449 143.117 188.894 142.961 188.392 142.649C187.898 142.337 187.503 141.899 187.209 141.336C186.923 140.764 186.78 140.11 186.78 139.373ZM192.448 139.399C192.448 138.957 192.361 138.58 192.188 138.268C192.014 137.947 191.78 137.705 191.486 137.54C191.191 137.367 190.875 137.28 190.537 137.28C190.199 137.28 189.887 137.362 189.601 137.527C189.315 137.692 189.081 137.934 188.899 138.255C188.725 138.567 188.639 138.94 188.639 139.373C188.639 139.806 188.725 140.188 188.899 140.517C189.081 140.838 189.315 141.085 189.601 141.258C189.895 141.431 190.207 141.518 190.537 141.518C190.875 141.518 191.191 141.436 191.486 141.271C191.78 141.098 192.014 140.855 192.188 140.543C192.361 140.222 192.448 139.841 192.448 139.399ZM188.444 135.109C188.522 134.537 188.699 134.112 188.977 133.835C189.263 133.549 189.622 133.406 190.056 133.406C190.238 133.406 190.398 133.436 190.537 133.497C190.675 133.549 190.831 133.627 191.005 133.731C191.265 133.896 191.481 133.978 191.655 133.978C191.975 133.978 192.162 133.792 192.214 133.419H193.189C193.111 133.991 192.929 134.42 192.643 134.706C192.365 134.983 192.01 135.122 191.577 135.122C191.395 135.122 191.234 135.096 191.096 135.044C190.957 134.983 190.801 134.901 190.628 134.797C190.376 134.624 190.16 134.537 189.978 134.537C189.657 134.537 189.466 134.728 189.406 135.109H188.444ZM199.256 143.117C198.563 143.117 197.939 142.965 197.384 142.662C196.829 142.35 196.392 141.912 196.071 141.349C195.759 140.786 195.603 140.136 195.603 139.399C195.603 138.662 195.763 138.012 196.084 137.449C196.413 136.886 196.86 136.452 197.423 136.149C197.986 135.837 198.615 135.681 199.308 135.681C200.001 135.681 200.63 135.837 201.193 136.149C201.756 136.452 202.198 136.886 202.519 137.449C202.848 138.012 203.013 138.662 203.013 139.399C203.013 140.136 202.844 140.786 202.506 141.349C202.177 141.912 201.726 142.35 201.154 142.662C200.591 142.965 199.958 143.117 199.256 143.117ZM199.256 141.531C199.585 141.531 199.893 141.453 200.179 141.297C200.474 141.132 200.708 140.89 200.881 140.569C201.054 140.248 201.141 139.858 201.141 139.399C201.141 138.714 200.959 138.19 200.595 137.826C200.24 137.453 199.802 137.267 199.282 137.267C198.762 137.267 198.324 137.453 197.969 137.826C197.622 138.19 197.449 138.714 197.449 139.399C197.449 140.084 197.618 140.612 197.956 140.985C198.303 141.349 198.736 141.531 199.256 141.531Z" fill="#1E1E1E"/>
<path d="M55.461 200.271H51.847L51.249 202H49.338L52.601 192.913H54.72L57.983 202H56.059L55.461 200.271ZM54.967 198.815L53.654 195.019L52.341 198.815H54.967ZM58.7347 198.373C58.7347 197.645 58.8777 196.999 59.1637 196.436C59.4583 195.873 59.857 195.439 60.3597 195.136C60.8623 194.833 61.4213 194.681 62.0367 194.681C62.5047 194.681 62.951 194.785 63.3757 194.993C63.8003 195.192 64.1383 195.461 64.3897 195.799V192.38H66.2357V202H64.3897V200.934C64.1643 201.289 63.848 201.575 63.4407 201.792C63.0333 202.009 62.561 202.117 62.0237 202.117C61.417 202.117 60.8623 201.961 60.3597 201.649C59.857 201.337 59.4583 200.899 59.1637 200.336C58.8777 199.764 58.7347 199.11 58.7347 198.373ZM64.4027 198.399C64.4027 197.957 64.316 197.58 64.1427 197.268C63.9693 196.947 63.7353 196.705 63.4407 196.54C63.146 196.367 62.8297 196.28 62.4917 196.28C62.1537 196.28 61.8417 196.362 61.5557 196.527C61.2697 196.692 61.0357 196.934 60.8537 197.255C60.6803 197.567 60.5937 197.94 60.5937 198.373C60.5937 198.806 60.6803 199.188 60.8537 199.517C61.0357 199.838 61.2697 200.085 61.5557 200.258C61.8503 200.431 62.1623 200.518 62.4917 200.518C62.8297 200.518 63.146 200.436 63.4407 200.271C63.7353 200.098 63.9693 199.855 64.1427 199.543C64.316 199.222 64.4027 198.841 64.4027 198.399ZM68.9362 193.94C68.6155 193.94 68.3469 193.84 68.1302 193.641C67.9222 193.433 67.8182 193.177 67.8182 192.874C67.8182 192.571 67.9222 192.319 68.1302 192.12C68.3469 191.912 68.6155 191.808 68.9362 191.808C69.2569 191.808 69.5212 191.912 69.7292 192.12C69.9459 192.319 70.0542 192.571 70.0542 192.874C70.0542 193.177 69.9459 193.433 69.7292 193.641C69.5212 193.84 69.2569 193.94 68.9362 193.94ZM69.8332 194.798V202H68.0132V194.798H69.8332ZM71.1634 198.399C71.1634 197.654 71.315 197.004 71.6184 196.449C71.9217 195.886 72.342 195.452 72.8794 195.149C73.4167 194.837 74.032 194.681 74.7254 194.681C75.618 194.681 76.3547 194.906 76.9354 195.357C77.5247 195.799 77.919 196.423 78.1184 197.229H76.1554C76.0514 196.917 75.8737 196.674 75.6224 196.501C75.3797 196.319 75.0764 196.228 74.7124 196.228C74.1924 196.228 73.7807 196.419 73.4774 196.8C73.174 197.173 73.0224 197.706 73.0224 198.399C73.0224 199.084 73.174 199.617 73.4774 199.998C73.7807 200.371 74.1924 200.557 74.7124 200.557C75.449 200.557 75.93 200.228 76.1554 199.569H78.1184C77.919 200.349 77.5247 200.969 76.9354 201.428C76.346 201.887 75.6094 202.117 74.7254 202.117C74.032 202.117 73.4167 201.965 72.8794 201.662C72.342 201.35 71.9217 200.917 71.6184 200.362C71.315 199.799 71.1634 199.144 71.1634 198.399ZM80.3747 193.94C80.054 193.94 79.7854 193.84 79.5687 193.641C79.3607 193.433 79.2567 193.177 79.2567 192.874C79.2567 192.571 79.3607 192.319 79.5687 192.12C79.7854 191.912 80.054 191.808 80.3747 191.808C80.6954 191.808 80.9597 191.912 81.1677 192.12C81.3844 192.319 81.4927 192.571 81.4927 192.874C81.4927 193.177 81.3844 193.433 81.1677 193.641C80.9597 193.84 80.6954 193.94 80.3747 193.94ZM81.2717 194.798V202H79.4517V194.798H81.2717ZM86.2679 202.117C85.5745 202.117 84.9505 201.965 84.3959 201.662C83.8412 201.35 83.4035 200.912 83.0829 200.349C82.7709 199.786 82.6149 199.136 82.6149 198.399C82.6149 197.662 82.7752 197.012 83.0959 196.449C83.4252 195.886 83.8715 195.452 84.4349 195.149C84.9982 194.837 85.6265 194.681 86.3199 194.681C87.0132 194.681 87.6415 194.837 88.2049 195.149C88.7682 195.452 89.2102 195.886 89.5309 196.449C89.8602 197.012 90.0249 197.662 90.0249 198.399C90.0249 199.136 89.8559 199.786 89.5179 200.349C89.1885 200.912 88.7379 201.35 88.1659 201.662C87.6025 201.965 86.9699 202.117 86.2679 202.117ZM86.2679 200.531C86.5972 200.531 86.9049 200.453 87.1909 200.297C87.4855 200.132 87.7195 199.89 87.8929 199.569C88.0662 199.248 88.1529 198.858 88.1529 198.399C88.1529 197.714 87.9709 197.19 87.6069 196.826C87.2515 196.453 86.8139 196.267 86.2939 196.267C85.7739 196.267 85.3362 196.453 84.9809 196.826C84.6342 197.19 84.4609 197.714 84.4609 198.399C84.4609 199.084 84.6299 199.612 84.9679 199.985C85.3145 200.349 85.7479 200.531 86.2679 200.531ZM95.3509 194.694C96.2089 194.694 96.9022 194.967 97.4309 195.513C97.9596 196.05 98.2239 196.804 98.2239 197.775V202H96.4039V198.022C96.4039 197.45 96.2609 197.012 95.9749 196.709C95.6889 196.397 95.2989 196.241 94.8049 196.241C94.3022 196.241 93.9036 196.397 93.6089 196.709C93.3229 197.012 93.1799 197.45 93.1799 198.022V202H91.3599V194.798H93.1799V195.695C93.4226 195.383 93.7302 195.14 94.1029 194.967C94.4842 194.785 94.9002 194.694 95.3509 194.694ZM106.65 198.243C106.65 198.503 106.632 198.737 106.598 198.945H101.333C101.376 199.465 101.558 199.872 101.879 200.167C102.199 200.462 102.594 200.609 103.062 200.609C103.738 200.609 104.219 200.319 104.505 199.738H106.468C106.26 200.431 105.861 201.003 105.272 201.454C104.682 201.896 103.959 202.117 103.101 202.117C102.407 202.117 101.783 201.965 101.229 201.662C100.683 201.35 100.254 200.912 99.9416 200.349C99.6383 199.786 99.4866 199.136 99.4866 198.399C99.4866 197.654 99.6383 196.999 99.9416 196.436C100.245 195.873 100.67 195.439 101.216 195.136C101.762 194.833 102.39 194.681 103.101 194.681C103.785 194.681 104.396 194.828 104.934 195.123C105.48 195.418 105.9 195.838 106.195 196.384C106.498 196.921 106.65 197.541 106.65 198.243ZM104.765 197.723C104.756 197.255 104.587 196.882 104.258 196.605C103.928 196.319 103.525 196.176 103.049 196.176C102.598 196.176 102.217 196.315 101.905 196.592C101.601 196.861 101.415 197.238 101.346 197.723H104.765ZM117.875 194.798V202H116.042V201.09C115.808 201.402 115.5 201.649 115.119 201.831C114.746 202.004 114.339 202.091 113.897 202.091C113.333 202.091 112.835 201.974 112.402 201.74C111.968 201.497 111.626 201.146 111.375 200.687C111.132 200.219 111.011 199.664 111.011 199.023V194.798H112.831V198.763C112.831 199.335 112.974 199.777 113.26 200.089C113.546 200.392 113.936 200.544 114.43 200.544C114.932 200.544 115.327 200.392 115.613 200.089C115.899 199.777 116.042 199.335 116.042 198.763V194.798H117.875ZM128.614 194.694C129.498 194.694 130.209 194.967 130.746 195.513C131.292 196.05 131.565 196.804 131.565 197.775V202H129.745V198.022C129.745 197.459 129.602 197.03 129.316 196.735C129.03 196.432 128.64 196.28 128.146 196.28C127.652 196.28 127.258 196.432 126.963 196.735C126.677 197.03 126.534 197.459 126.534 198.022V202H124.714V198.022C124.714 197.459 124.571 197.03 124.285 196.735C123.999 196.432 123.609 196.28 123.115 196.28C122.613 196.28 122.214 196.432 121.919 196.735C121.633 197.03 121.49 197.459 121.49 198.022V202H119.67V194.798H121.49V195.669C121.724 195.366 122.023 195.127 122.387 194.954C122.76 194.781 123.167 194.694 123.609 194.694C124.173 194.694 124.675 194.815 125.117 195.058C125.559 195.292 125.902 195.63 126.144 196.072C126.378 195.656 126.716 195.322 127.158 195.071C127.609 194.82 128.094 194.694 128.614 194.694ZM132.825 198.373C132.825 197.645 132.968 196.999 133.254 196.436C133.548 195.873 133.943 195.439 134.437 195.136C134.939 194.833 135.498 194.681 136.114 194.681C136.651 194.681 137.119 194.789 137.518 195.006C137.925 195.223 138.25 195.496 138.493 195.825V194.798H140.326V202H138.493V200.947C138.259 201.285 137.934 201.567 137.518 201.792C137.11 202.009 136.638 202.117 136.101 202.117C135.494 202.117 134.939 201.961 134.437 201.649C133.943 201.337 133.548 200.899 133.254 200.336C132.968 199.764 132.825 199.11 132.825 198.373ZM138.493 198.399C138.493 197.957 138.406 197.58 138.233 197.268C138.059 196.947 137.825 196.705 137.531 196.54C137.236 196.367 136.92 196.28 136.582 196.28C136.244 196.28 135.932 196.362 135.646 196.527C135.36 196.692 135.126 196.934 134.944 197.255C134.77 197.567 134.684 197.94 134.684 198.373C134.684 198.806 134.77 199.188 134.944 199.517C135.126 199.838 135.36 200.085 135.646 200.258C135.94 200.431 136.252 200.518 136.582 200.518C136.92 200.518 137.236 200.436 137.531 200.271C137.825 200.098 138.059 199.855 138.233 199.543C138.406 199.222 138.493 198.841 138.493 198.399ZM144.733 198.399C144.733 197.654 144.884 197.004 145.188 196.449C145.491 195.886 145.911 195.452 146.449 195.149C146.986 194.837 147.601 194.681 148.295 194.681C149.187 194.681 149.924 194.906 150.505 195.357C151.094 195.799 151.488 196.423 151.688 197.229H149.725C149.621 196.917 149.443 196.674 149.192 196.501C148.949 196.319 148.646 196.228 148.282 196.228C147.762 196.228 147.35 196.419 147.047 196.8C146.743 197.173 146.592 197.706 146.592 198.399C146.592 199.084 146.743 199.617 147.047 199.998C147.35 200.371 147.762 200.557 148.282 200.557C149.018 200.557 149.499 200.228 149.725 199.569H151.688C151.488 200.349 151.094 200.969 150.505 201.428C149.915 201.887 149.179 202.117 148.295 202.117C147.601 202.117 146.986 201.965 146.449 201.662C145.911 201.35 145.491 200.917 145.188 200.362C144.884 199.799 144.733 199.144 144.733 198.399ZM152.553 198.373C152.553 197.645 152.696 196.999 152.982 196.436C153.277 195.873 153.671 195.439 154.165 195.136C154.668 194.833 155.227 194.681 155.842 194.681C156.379 194.681 156.847 194.789 157.246 195.006C157.653 195.223 157.978 195.496 158.221 195.825V194.798H160.054V202H158.221V200.947C157.987 201.285 157.662 201.567 157.246 201.792C156.839 202.009 156.366 202.117 155.829 202.117C155.222 202.117 154.668 201.961 154.165 201.649C153.671 201.337 153.277 200.899 152.982 200.336C152.696 199.764 152.553 199.11 152.553 198.373ZM158.221 198.399C158.221 197.957 158.134 197.58 157.961 197.268C157.788 196.947 157.554 196.705 157.259 196.54C156.964 196.367 156.648 196.28 156.31 196.28C155.972 196.28 155.66 196.362 155.374 196.527C155.088 196.692 154.854 196.934 154.672 197.255C154.499 197.567 154.412 197.94 154.412 198.373C154.412 198.806 154.499 199.188 154.672 199.517C154.854 199.838 155.088 200.085 155.374 200.258C155.669 200.431 155.981 200.518 156.31 200.518C156.648 200.518 156.964 200.436 157.259 200.271C157.554 200.098 157.788 199.855 157.961 199.543C158.134 199.222 158.221 198.841 158.221 198.399ZM163.652 195.838C163.886 195.509 164.206 195.236 164.614 195.019C165.03 194.794 165.502 194.681 166.031 194.681C166.646 194.681 167.201 194.833 167.695 195.136C168.197 195.439 168.592 195.873 168.878 196.436C169.172 196.991 169.32 197.636 169.32 198.373C169.32 199.11 169.172 199.764 168.878 200.336C168.592 200.899 168.197 201.337 167.695 201.649C167.201 201.961 166.646 202.117 166.031 202.117C165.502 202.117 165.034 202.009 164.627 201.792C164.228 201.575 163.903 201.302 163.652 200.973V205.432H161.832V194.798H163.652V195.838ZM167.461 198.373C167.461 197.94 167.37 197.567 167.188 197.255C167.014 196.934 166.78 196.692 166.486 196.527C166.2 196.362 165.888 196.28 165.55 196.28C165.22 196.28 164.908 196.367 164.614 196.54C164.328 196.705 164.094 196.947 163.912 197.268C163.738 197.589 163.652 197.966 163.652 198.399C163.652 198.832 163.738 199.209 163.912 199.53C164.094 199.851 164.328 200.098 164.614 200.271C164.908 200.436 165.22 200.518 165.55 200.518C165.888 200.518 166.2 200.431 166.486 200.258C166.78 200.085 167.014 199.838 167.188 199.517C167.37 199.196 167.461 198.815 167.461 198.373ZM170.174 198.373C170.174 197.645 170.317 196.999 170.603 196.436C170.898 195.873 171.292 195.439 171.786 195.136C172.289 194.833 172.848 194.681 173.463 194.681C174 194.681 174.468 194.789 174.867 195.006C175.274 195.223 175.599 195.496 175.842 195.825V194.798H177.675V202H175.842V200.947C175.608 201.285 175.283 201.567 174.867 201.792C174.46 202.009 173.987 202.117 173.45 202.117C172.843 202.117 172.289 201.961 171.786 201.649C171.292 201.337 170.898 200.899 170.603 200.336C170.317 199.764 170.174 199.11 170.174 198.373ZM175.842 198.399C175.842 197.957 175.755 197.58 175.582 197.268C175.409 196.947 175.175 196.705 174.88 196.54C174.585 196.367 174.269 196.28 173.931 196.28C173.593 196.28 173.281 196.362 172.995 196.527C172.709 196.692 172.475 196.934 172.293 197.255C172.12 197.567 172.033 197.94 172.033 198.373C172.033 198.806 172.12 199.188 172.293 199.517C172.475 199.838 172.709 200.085 172.995 200.258C173.29 200.431 173.602 200.518 173.931 200.518C174.269 200.518 174.585 200.436 174.88 200.271C175.175 200.098 175.409 199.855 175.582 199.543C175.755 199.222 175.842 198.841 175.842 198.399Z" fill="#1E1E1E"/>
<path d="M51.717 244.395V246.67H54.772V248.113H51.717V250.518H55.162V252H49.897V242.913H55.162V244.395H51.717ZM59.5719 252.117C58.9826 252.117 58.4539 252.013 57.9859 251.805C57.5179 251.588 57.1453 251.298 56.8679 250.934C56.5993 250.57 56.4519 250.167 56.4259 249.725H58.2589C58.2936 250.002 58.4279 250.232 58.6619 250.414C58.9046 250.596 59.2036 250.687 59.5589 250.687C59.9056 250.687 60.1743 250.618 60.3649 250.479C60.5643 250.34 60.6639 250.163 60.6639 249.946C60.6639 249.712 60.5426 249.539 60.2999 249.426C60.0659 249.305 59.6889 249.175 59.1689 249.036C58.6316 248.906 58.1896 248.772 57.8429 248.633C57.5049 248.494 57.2103 248.282 56.9589 247.996C56.7163 247.71 56.5949 247.324 56.5949 246.839C56.5949 246.44 56.7076 246.076 56.9329 245.747C57.1669 245.418 57.4963 245.158 57.9209 244.967C58.3543 244.776 58.8613 244.681 59.4419 244.681C60.2999 244.681 60.9846 244.898 61.4959 245.331C62.0073 245.756 62.2889 246.332 62.3409 247.06H60.5989C60.5729 246.774 60.4516 246.549 60.2349 246.384C60.0269 246.211 59.7453 246.124 59.3899 246.124C59.0606 246.124 58.8049 246.185 58.6229 246.306C58.4496 246.427 58.3629 246.596 58.3629 246.813C58.3629 247.056 58.4843 247.242 58.7269 247.372C58.9696 247.493 59.3466 247.619 59.8579 247.749C60.3779 247.879 60.8069 248.013 61.1449 248.152C61.4829 248.291 61.7733 248.507 62.0159 248.802C62.2673 249.088 62.3973 249.469 62.4059 249.946C62.4059 250.362 62.2889 250.735 62.0549 251.064C61.8296 251.393 61.5003 251.653 61.0669 251.844C60.6423 252.026 60.1439 252.117 59.5719 252.117ZM63.4319 248.399C63.4319 247.654 63.5836 247.004 63.8869 246.449C64.1903 245.886 64.6106 245.452 65.1479 245.149C65.6853 244.837 66.3006 244.681 66.9939 244.681C67.8866 244.681 68.6233 244.906 69.2039 245.357C69.7933 245.799 70.1876 246.423 70.3869 247.229H68.4239C68.3199 246.917 68.1423 246.674 67.8909 246.501C67.6483 246.319 67.3449 246.228 66.9809 246.228C66.4609 246.228 66.0493 246.419 65.7459 246.8C65.4426 247.173 65.2909 247.706 65.2909 248.399C65.2909 249.084 65.4426 249.617 65.7459 249.998C66.0493 250.371 66.4609 250.557 66.9809 250.557C67.7176 250.557 68.1986 250.228 68.4239 249.569H70.3869C70.1876 250.349 69.7933 250.969 69.2039 251.428C68.6146 251.887 67.8779 252.117 66.9939 252.117C66.3006 252.117 65.6853 251.965 65.1479 251.662C64.6106 251.35 64.1903 250.917 63.8869 250.362C63.5836 249.799 63.4319 249.144 63.4319 248.399ZM73.5402 245.916C73.7742 245.535 74.0776 245.236 74.4502 245.019C74.8316 244.802 75.2649 244.694 75.7502 244.694V246.605H75.2692C74.6972 246.605 74.2639 246.739 73.9692 247.008C73.6832 247.277 73.5402 247.745 73.5402 248.412V252H71.7202V244.798H73.5402V245.916ZM83.6711 248.243C83.6711 248.503 83.6538 248.737 83.6191 248.945H78.3541C78.3974 249.465 78.5794 249.872 78.9001 250.167C79.2208 250.462 79.6151 250.609 80.0831 250.609C80.7591 250.609 81.2401 250.319 81.5261 249.738H83.4891C83.2811 250.431 82.8824 251.003 82.2931 251.454C81.7038 251.896 80.9801 252.117 80.1221 252.117C79.4288 252.117 78.8048 251.965 78.2501 251.662C77.7041 251.35 77.2751 250.912 76.9631 250.349C76.6598 249.786 76.5081 249.136 76.5081 248.399C76.5081 247.654 76.6598 246.999 76.9631 246.436C77.2664 245.873 77.6911 245.439 78.2371 245.136C78.7831 244.833 79.4114 244.681 80.1221 244.681C80.8068 244.681 81.4178 244.828 81.9551 245.123C82.5011 245.418 82.9214 245.838 83.2161 246.384C83.5194 246.921 83.6711 247.541 83.6711 248.243ZM81.7861 247.723C81.7774 247.255 81.6084 246.882 81.2791 246.605C80.9498 246.319 80.5468 246.176 80.0701 246.176C79.6194 246.176 79.2381 246.315 78.9261 246.592C78.6228 246.861 78.4364 247.238 78.3671 247.723H81.7861ZM88.0025 250.323L89.8225 244.798H91.7595L89.0945 252H86.8845L84.2325 244.798H86.1825L88.0025 250.323ZM92.3138 248.373C92.3138 247.645 92.4568 246.999 92.7428 246.436C93.0374 245.873 93.4318 245.439 93.9258 245.136C94.4284 244.833 94.9874 244.681 95.6028 244.681C96.1401 244.681 96.6081 244.789 97.0068 245.006C97.4141 245.223 97.7391 245.496 97.9818 245.825V244.798H99.8148V252H97.9818V250.947C97.7478 251.285 97.4228 251.567 97.0068 251.792C96.5994 252.009 96.1271 252.117 95.5898 252.117C94.9831 252.117 94.4284 251.961 93.9258 251.649C93.4318 251.337 93.0374 250.899 92.7428 250.336C92.4568 249.764 92.3138 249.11 92.3138 248.373ZM97.9818 248.399C97.9818 247.957 97.8951 247.58 97.7218 247.268C97.5484 246.947 97.3144 246.705 97.0198 246.54C96.7251 246.367 96.4088 246.28 96.0708 246.28C95.7328 246.28 95.4208 246.362 95.1348 246.527C94.8488 246.692 94.6148 246.934 94.4328 247.255C94.2594 247.567 94.1728 247.94 94.1728 248.373C94.1728 248.806 94.2594 249.188 94.4328 249.517C94.6148 249.838 94.8488 250.085 95.1348 250.258C95.4294 250.431 95.7414 250.518 96.0708 250.518C96.4088 250.518 96.7251 250.436 97.0198 250.271C97.3144 250.098 97.5484 249.855 97.7218 249.543C97.8951 249.222 97.9818 248.841 97.9818 248.399ZM107.888 252.117C107.195 252.117 106.571 251.965 106.016 251.662C105.461 251.35 105.024 250.912 104.703 250.349C104.391 249.786 104.235 249.136 104.235 248.399C104.235 247.662 104.395 247.012 104.716 246.449C105.045 245.886 105.492 245.452 106.055 245.149C106.618 244.837 107.247 244.681 107.94 244.681C108.633 244.681 109.262 244.837 109.825 245.149C110.388 245.452 110.83 245.886 111.151 246.449C111.48 247.012 111.645 247.662 111.645 248.399C111.645 249.136 111.476 249.786 111.138 250.349C110.809 250.912 110.358 251.35 109.786 251.662C109.223 251.965 108.59 252.117 107.888 252.117ZM107.888 250.531C108.217 250.531 108.525 250.453 108.811 250.297C109.106 250.132 109.34 249.89 109.513 249.569C109.686 249.248 109.773 248.858 109.773 248.399C109.773 247.714 109.591 247.19 109.227 246.826C108.872 246.453 108.434 246.267 107.914 246.267C107.394 246.267 106.956 246.453 106.601 246.826C106.254 247.19 106.081 247.714 106.081 248.399C106.081 249.084 106.25 249.612 106.588 249.985C106.935 250.349 107.368 250.531 107.888 250.531ZM115.61 248.399C115.61 247.654 115.761 247.004 116.065 246.449C116.368 245.886 116.788 245.452 117.326 245.149C117.863 244.837 118.478 244.681 119.172 244.681C120.064 244.681 120.801 244.906 121.382 245.357C121.971 245.799 122.365 246.423 122.565 247.229H120.602C120.498 246.917 120.32 246.674 120.069 246.501C119.826 246.319 119.523 246.228 119.159 246.228C118.639 246.228 118.227 246.419 117.924 246.8C117.62 247.173 117.469 247.706 117.469 248.399C117.469 249.084 117.62 249.617 117.924 249.998C118.227 250.371 118.639 250.557 119.159 250.557C119.895 250.557 120.376 250.228 120.602 249.569H122.565C122.365 250.349 121.971 250.969 121.382 251.428C120.792 251.887 120.056 252.117 119.172 252.117C118.478 252.117 117.863 251.965 117.326 251.662C116.788 251.35 116.368 250.917 116.065 250.362C115.761 249.799 115.61 249.144 115.61 248.399ZM127.096 252.117C126.403 252.117 125.779 251.965 125.224 251.662C124.669 251.35 124.232 250.912 123.911 250.349C123.599 249.786 123.443 249.136 123.443 248.399C123.443 247.662 123.603 247.012 123.924 246.449C124.253 245.886 124.7 245.452 125.263 245.149C125.826 244.837 126.455 244.681 127.148 244.681C127.841 244.681 128.47 244.837 129.033 245.149C129.596 245.452 130.038 245.886 130.359 246.449C130.688 247.012 130.853 247.662 130.853 248.399C130.853 249.136 130.684 249.786 130.346 250.349C130.017 250.912 129.566 251.35 128.994 251.662C128.431 251.965 127.798 252.117 127.096 252.117ZM127.096 250.531C127.425 250.531 127.733 250.453 128.019 250.297C128.314 250.132 128.548 249.89 128.721 249.569C128.894 249.248 128.981 248.858 128.981 248.399C128.981 247.714 128.799 247.19 128.435 246.826C128.08 246.453 127.642 246.267 127.122 246.267C126.602 246.267 126.164 246.453 125.809 246.826C125.462 247.19 125.289 247.714 125.289 248.399C125.289 249.084 125.458 249.612 125.796 249.985C126.143 250.349 126.576 250.531 127.096 250.531ZM136.179 244.694C137.037 244.694 137.73 244.967 138.259 245.513C138.788 246.05 139.052 246.804 139.052 247.775V252H137.232V248.022C137.232 247.45 137.089 247.012 136.803 246.709C136.517 246.397 136.127 246.241 135.633 246.241C135.13 246.241 134.732 246.397 134.437 246.709C134.151 247.012 134.008 247.45 134.008 248.022V252H132.188V244.798H134.008V245.695C134.251 245.383 134.558 245.14 134.931 244.967C135.312 244.785 135.728 244.694 136.179 244.694ZM142.902 246.293V249.777C142.902 250.02 142.958 250.197 143.071 250.31C143.192 250.414 143.391 250.466 143.669 250.466H144.514V252H143.37C141.836 252 141.069 251.255 141.069 249.764V246.293H140.211V244.798H141.069V243.017H142.902V244.798H144.514V246.293H142.902ZM152.518 248.243C152.518 248.503 152.5 248.737 152.466 248.945H147.201C147.244 249.465 147.426 249.872 147.747 250.167C148.067 250.462 148.462 250.609 148.93 250.609C149.606 250.609 150.087 250.319 150.373 249.738H152.336C152.128 250.431 151.729 251.003 151.14 251.454C150.55 251.896 149.827 252.117 148.969 252.117C148.275 252.117 147.651 251.965 147.097 251.662C146.551 251.35 146.122 250.912 145.81 250.349C145.506 249.786 145.355 249.136 145.355 248.399C145.355 247.654 145.506 246.999 145.81 246.436C146.113 245.873 146.538 245.439 147.084 245.136C147.63 244.833 148.258 244.681 148.969 244.681C149.653 244.681 150.264 244.828 150.802 245.123C151.348 245.418 151.768 245.838 152.063 246.384C152.366 246.921 152.518 247.541 152.518 248.243ZM150.633 247.723C150.624 247.255 150.455 246.882 150.126 246.605C149.796 246.319 149.393 246.176 148.917 246.176C148.466 246.176 148.085 246.315 147.773 246.592C147.469 246.861 147.283 247.238 147.214 247.723H150.633ZM160.645 244.798V252H158.812V251.09C158.578 251.402 158.271 251.649 157.889 251.831C157.517 252.004 157.109 252.091 156.667 252.091C156.104 252.091 155.606 251.974 155.172 251.74C154.739 251.497 154.397 251.146 154.145 250.687C153.903 250.219 153.781 249.664 153.781 249.023V244.798H155.601V248.763C155.601 249.335 155.744 249.777 156.03 250.089C156.316 250.392 156.706 250.544 157.2 250.544C157.703 250.544 158.097 250.392 158.383 250.089C158.669 249.777 158.812 249.335 158.812 248.763V244.798H160.645ZM158.669 242.926L155.679 244.291V242.991L158.669 241.444V242.926ZM161.973 248.373C161.973 247.645 162.116 246.999 162.402 246.436C162.697 245.873 163.095 245.439 163.598 245.136C164.101 244.833 164.66 244.681 165.275 244.681C165.743 244.681 166.189 244.785 166.614 244.993C167.039 245.192 167.377 245.461 167.628 245.799V242.38H169.474V252H167.628V250.934C167.403 251.289 167.086 251.575 166.679 251.792C166.272 252.009 165.799 252.117 165.262 252.117C164.655 252.117 164.101 251.961 163.598 251.649C163.095 251.337 162.697 250.899 162.402 250.336C162.116 249.764 161.973 249.11 161.973 248.373ZM167.641 248.399C167.641 247.957 167.554 247.58 167.381 247.268C167.208 246.947 166.974 246.705 166.679 246.54C166.384 246.367 166.068 246.28 165.73 246.28C165.392 246.28 165.08 246.362 164.794 246.527C164.508 246.692 164.274 246.934 164.092 247.255C163.919 247.567 163.832 247.94 163.832 248.373C163.832 248.806 163.919 249.188 164.092 249.517C164.274 249.838 164.508 250.085 164.794 250.258C165.089 250.431 165.401 250.518 165.73 250.518C166.068 250.518 166.384 250.436 166.679 250.271C166.974 250.098 167.208 249.855 167.381 249.543C167.554 249.222 167.641 248.841 167.641 248.399ZM174.449 252.117C173.756 252.117 173.132 251.965 172.577 251.662C172.023 251.35 171.585 250.912 171.264 250.349C170.952 249.786 170.796 249.136 170.796 248.399C170.796 247.662 170.957 247.012 171.277 246.449C171.607 245.886 172.053 245.452 172.616 245.149C173.18 244.837 173.808 244.681 174.501 244.681C175.195 244.681 175.823 244.837 176.386 245.149C176.95 245.452 177.392 245.886 177.712 246.449C178.042 247.012 178.206 247.662 178.206 248.399C178.206 249.136 178.037 249.786 177.699 250.349C177.37 250.912 176.919 251.35 176.347 251.662C175.784 251.965 175.151 252.117 174.449 252.117ZM174.449 250.531C174.779 250.531 175.086 250.453 175.372 250.297C175.667 250.132 175.901 249.89 176.074 249.569C176.248 249.248 176.334 248.858 176.334 248.399C176.334 247.714 176.152 247.19 175.788 246.826C175.433 246.453 174.995 246.267 174.475 246.267C173.955 246.267 173.518 246.453 173.162 246.826C172.816 247.19 172.642 247.714 172.642 248.399C172.642 249.084 172.811 249.612 173.149 249.985C173.496 250.349 173.929 250.531 174.449 250.531ZM182.171 248.373C182.171 247.645 182.314 246.999 182.6 246.436C182.895 245.873 183.294 245.439 183.796 245.136C184.299 244.833 184.858 244.681 185.473 244.681C185.941 244.681 186.388 244.785 186.812 244.993C187.237 245.192 187.575 245.461 187.826 245.799V242.38H189.672V252H187.826V250.934C187.601 251.289 187.285 251.575 186.877 251.792C186.47 252.009 185.998 252.117 185.46 252.117C184.854 252.117 184.299 251.961 183.796 251.649C183.294 251.337 182.895 250.899 182.6 250.336C182.314 249.764 182.171 249.11 182.171 248.373ZM187.839 248.399C187.839 247.957 187.753 247.58 187.579 247.268C187.406 246.947 187.172 246.705 186.877 246.54C186.583 246.367 186.266 246.28 185.928 246.28C185.59 246.28 185.278 246.362 184.992 246.527C184.706 246.692 184.472 246.934 184.29 247.255C184.117 247.567 184.03 247.94 184.03 248.373C184.03 248.806 184.117 249.188 184.29 249.517C184.472 249.838 184.706 250.085 184.992 250.258C185.287 250.431 185.599 250.518 185.928 250.518C186.266 250.518 186.583 250.436 186.877 250.271C187.172 250.098 187.406 249.855 187.579 249.543C187.753 249.222 187.839 248.841 187.839 248.399ZM190.982 248.373C190.982 247.645 191.125 246.999 191.411 246.436C191.705 245.873 192.1 245.439 192.594 245.136C193.096 244.833 193.655 244.681 194.271 244.681C194.808 244.681 195.276 244.789 195.675 245.006C196.082 245.223 196.407 245.496 196.65 245.825V244.798H198.483V252H196.65V250.947C196.416 251.285 196.091 251.567 195.675 251.792C195.267 252.009 194.795 252.117 194.258 252.117C193.651 252.117 193.096 251.961 192.594 251.649C192.1 251.337 191.705 250.899 191.411 250.336C191.125 249.764 190.982 249.11 190.982 248.373ZM196.65 248.399C196.65 247.957 196.563 247.58 196.39 247.268C196.216 246.947 195.982 246.705 195.688 246.54C195.393 246.367 195.077 246.28 194.739 246.28C194.401 246.28 194.089 246.362 193.803 246.527C193.517 246.692 193.283 246.934 193.101 247.255C192.927 247.567 192.841 247.94 192.841 248.373C192.841 248.806 192.927 249.188 193.101 249.517C193.283 249.838 193.517 250.085 193.803 250.258C194.097 250.431 194.409 250.518 194.739 250.518C195.077 250.518 195.393 250.436 195.688 250.271C195.982 250.098 196.216 249.855 196.39 249.543C196.563 249.222 196.65 248.841 196.65 248.399ZM52.653 272.117C52.0637 272.117 51.535 272.013 51.067 271.805C50.599 271.588 50.2263 271.298 49.949 270.934C49.6803 270.57 49.533 270.167 49.507 269.725H51.34C51.3747 270.002 51.509 270.232 51.743 270.414C51.9857 270.596 52.2847 270.687 52.64 270.687C52.9867 270.687 53.2553 270.618 53.446 270.479C53.6453 270.34 53.745 270.163 53.745 269.946C53.745 269.712 53.6237 269.539 53.381 269.426C53.147 269.305 52.77 269.175 52.25 269.036C51.7127 268.906 51.2707 268.772 50.924 268.633C50.586 268.494 50.2913 268.282 50.04 267.996C49.7973 267.71 49.676 267.324 49.676 266.839C49.676 266.44 49.7887 266.076 50.014 265.747C50.248 265.418 50.5773 265.158 51.002 264.967C51.4353 264.776 51.9423 264.681 52.523 264.681C53.381 264.681 54.0657 264.898 54.577 265.331C55.0883 265.756 55.37 266.332 55.422 267.06H53.68C53.654 266.774 53.5327 266.549 53.316 266.384C53.108 266.211 52.8263 266.124 52.471 266.124C52.1417 266.124 51.886 266.185 51.704 266.306C51.5307 266.427 51.444 266.596 51.444 266.813C51.444 267.056 51.5653 267.242 51.808 267.372C52.0507 267.493 52.4277 267.619 52.939 267.749C53.459 267.879 53.888 268.013 54.226 268.152C54.564 268.291 54.8543 268.507 55.097 268.802C55.3483 269.088 55.4783 269.469 55.487 269.946C55.487 270.362 55.37 270.735 55.136 271.064C54.9107 271.393 54.5813 271.653 54.148 271.844C53.7233 272.026 53.225 272.117 52.653 272.117ZM63.78 264.798V272H61.947V271.09C61.713 271.402 61.4053 271.649 61.024 271.831C60.6513 272.004 60.244 272.091 59.802 272.091C59.2387 272.091 58.7403 271.974 58.307 271.74C57.8737 271.497 57.5313 271.146 57.28 270.687C57.0373 270.219 56.916 269.664 56.916 269.023V264.798H58.736V268.763C58.736 269.335 58.879 269.777 59.165 270.089C59.451 270.392 59.841 270.544 60.335 270.544C60.8377 270.544 61.232 270.392 61.518 270.089C61.804 269.777 61.947 269.335 61.947 268.763V264.798H63.78ZM65.1077 268.373C65.1077 267.645 65.2507 266.999 65.5367 266.436C65.8314 265.873 66.2257 265.439 66.7197 265.136C67.2224 264.833 67.7814 264.681 68.3967 264.681C68.934 264.681 69.402 264.789 69.8007 265.006C70.208 265.223 70.533 265.496 70.7757 265.825V264.798H72.6087V272H70.7757V270.947C70.5417 271.285 70.2167 271.567 69.8007 271.792C69.3934 272.009 68.921 272.117 68.3837 272.117C67.777 272.117 67.2224 271.961 66.7197 271.649C66.2257 271.337 65.8314 270.899 65.5367 270.336C65.2507 269.764 65.1077 269.11 65.1077 268.373ZM70.7757 268.399C70.7757 267.957 70.689 267.58 70.5157 267.268C70.3424 266.947 70.1084 266.705 69.8137 266.54C69.519 266.367 69.2027 266.28 68.8647 266.28C68.5267 266.28 68.2147 266.362 67.9287 266.527C67.6427 266.692 67.4087 266.934 67.2267 267.255C67.0534 267.567 66.9667 267.94 66.9667 268.373C66.9667 268.806 67.0534 269.188 67.2267 269.517C67.4087 269.838 67.6427 270.085 67.9287 270.258C68.2234 270.431 68.5354 270.518 68.8647 270.518C69.2027 270.518 69.519 270.436 69.8137 270.271C70.1084 270.098 70.3424 269.855 70.5157 269.543C70.689 269.222 70.7757 268.841 70.7757 268.399ZM81.4749 264.694C82.3329 264.694 83.0262 264.967 83.5549 265.513C84.0836 266.05 84.3479 266.804 84.3479 267.775V272H82.5279V268.022C82.5279 267.45 82.3849 267.012 82.0989 266.709C81.8129 266.397 81.4229 266.241 80.9289 266.241C80.4262 266.241 80.0276 266.397 79.7329 266.709C79.4469 267.012 79.3039 267.45 79.3039 268.022V272H77.4839V264.798H79.3039V265.695C79.5466 265.383 79.8542 265.14 80.2269 264.967C80.6082 264.785 81.0242 264.694 81.4749 264.694ZM89.2766 272.117C88.5833 272.117 87.9593 271.965 87.4046 271.662C86.85 271.35 86.4123 270.912 86.0916 270.349C85.7796 269.786 85.6236 269.136 85.6236 268.399C85.6236 267.662 85.784 267.012 86.1046 266.449C86.434 265.886 86.8803 265.452 87.4436 265.149C88.007 264.837 88.6353 264.681 89.3286 264.681C90.022 264.681 90.6503 264.837 91.2136 265.149C91.777 265.452 92.219 265.886 92.5396 266.449C92.869 267.012 93.0336 267.662 93.0336 268.399C93.0336 269.136 92.8646 269.786 92.5266 270.349C92.1973 270.912 91.7466 271.35 91.1746 271.662C90.6113 271.965 89.9786 272.117 89.2766 272.117ZM89.2766 270.531C89.606 270.531 89.9136 270.453 90.1996 270.297C90.4943 270.132 90.7283 269.89 90.9016 269.569C91.075 269.248 91.1616 268.858 91.1616 268.399C91.1616 267.714 90.9796 267.19 90.6156 266.826C90.2603 266.453 89.8226 266.267 89.3026 266.267C88.7826 266.267 88.345 266.453 87.9896 266.826C87.643 267.19 87.4696 267.714 87.4696 268.399C87.4696 269.084 87.6386 269.612 87.9766 269.985C88.3233 270.349 88.7566 270.531 89.2766 270.531ZM96.4877 266.293V269.777C96.4877 270.02 96.544 270.197 96.6567 270.31C96.778 270.414 96.9773 270.466 97.2547 270.466H98.0997V272H96.9557C95.4217 272 94.6547 271.255 94.6547 269.764V266.293H93.7967V264.798H94.6547V263.017H96.4877V264.798H98.0997V266.293H96.4877ZM101.307 264.798V272H99.4867V264.798H101.307ZM101.814 262.926L98.8237 264.291V262.991L101.814 261.444V262.926ZM102.711 268.399C102.711 267.654 102.863 267.004 103.166 266.449C103.47 265.886 103.89 265.452 104.427 265.149C104.965 264.837 105.58 264.681 106.273 264.681C107.166 264.681 107.903 264.906 108.483 265.357C109.073 265.799 109.467 266.423 109.666 267.229H107.703C107.599 266.917 107.422 266.674 107.17 266.501C106.928 266.319 106.624 266.228 106.26 266.228C105.74 266.228 105.329 266.419 105.025 266.8C104.722 267.173 104.57 267.706 104.57 268.399C104.57 269.084 104.722 269.617 105.025 269.998C105.329 270.371 105.74 270.557 106.26 270.557C106.997 270.557 107.478 270.228 107.703 269.569H109.666C109.467 270.349 109.073 270.969 108.483 271.428C107.894 271.887 107.157 272.117 106.273 272.117C105.58 272.117 104.965 271.965 104.427 271.662C103.89 271.35 103.47 270.917 103.166 270.362C102.863 269.799 102.711 269.144 102.711 268.399ZM111.923 263.94C111.602 263.94 111.333 263.84 111.117 263.641C110.909 263.433 110.805 263.177 110.805 262.874C110.805 262.571 110.909 262.319 111.117 262.12C111.333 261.912 111.602 261.808 111.923 261.808C112.243 261.808 112.508 261.912 112.716 262.12C112.932 262.319 113.041 262.571 113.041 262.874C113.041 263.177 112.932 263.433 112.716 263.641C112.508 263.84 112.243 263.94 111.923 263.94ZM112.82 264.798V272H111V264.798H112.82ZM114.15 268.373C114.15 267.645 114.293 266.999 114.579 266.436C114.873 265.873 115.268 265.439 115.762 265.136C116.264 264.833 116.823 264.681 117.439 264.681C117.976 264.681 118.444 264.789 118.843 265.006C119.25 265.223 119.575 265.496 119.818 265.825V264.798H121.651V272H119.818V270.947C119.584 271.285 119.259 271.567 118.843 271.792C118.435 272.009 117.963 272.117 117.426 272.117C116.819 272.117 116.264 271.961 115.762 271.649C115.268 271.337 114.873 270.899 114.579 270.336C114.293 269.764 114.15 269.11 114.15 268.373ZM119.818 268.399C119.818 267.957 119.731 267.58 119.558 267.268C119.384 266.947 119.15 266.705 118.856 266.54C118.561 266.367 118.245 266.28 117.907 266.28C117.569 266.28 117.257 266.362 116.971 266.527C116.685 266.692 116.451 266.934 116.269 267.255C116.095 267.567 116.009 267.94 116.009 268.373C116.009 268.806 116.095 269.188 116.269 269.517C116.451 269.838 116.685 270.085 116.971 270.258C117.265 270.431 117.577 270.518 117.907 270.518C118.245 270.518 118.561 270.436 118.856 270.271C119.15 270.098 119.384 269.855 119.558 269.543C119.731 269.222 119.818 268.841 119.818 268.399Z" fill="#1E1E1E"/>
<path d="M56.514 315.734C56.514 316.219 56.397 316.674 56.163 317.099C55.9377 317.524 55.578 317.866 55.084 318.126C54.5987 318.386 53.9833 318.516 53.238 318.516H51.717V322H49.897V312.926H53.238C53.94 312.926 54.538 313.047 55.032 313.29C55.526 313.533 55.8943 313.866 56.137 314.291C56.3883 314.716 56.514 315.197 56.514 315.734ZM53.16 317.047C53.6627 317.047 54.0353 316.934 54.278 316.709C54.5207 316.475 54.642 316.15 54.642 315.734C54.642 314.85 54.148 314.408 53.16 314.408H51.717V317.047H53.16ZM64.6052 314.798V322H62.7722V321.09C62.5382 321.402 62.2305 321.649 61.8492 321.831C61.4765 322.004 61.0692 322.091 60.6272 322.091C60.0638 322.091 59.5655 321.974 59.1322 321.74C58.6988 321.497 58.3565 321.146 58.1052 320.687C57.8625 320.219 57.7412 319.664 57.7412 319.023V314.798H59.5612V318.763C59.5612 319.335 59.7042 319.777 59.9902 320.089C60.2762 320.392 60.6662 320.544 61.1602 320.544C61.6628 320.544 62.0572 320.392 62.3432 320.089C62.6292 319.777 62.7722 319.335 62.7722 318.763V314.798H64.6052ZM68.2209 315.851C68.4549 315.504 68.7756 315.223 69.1829 315.006C69.5989 314.789 70.0712 314.681 70.5999 314.681C71.2152 314.681 71.7699 314.833 72.2639 315.136C72.7666 315.439 73.1609 315.873 73.4469 316.436C73.7416 316.991 73.8889 317.636 73.8889 318.373C73.8889 319.11 73.7416 319.764 73.4469 320.336C73.1609 320.899 72.7666 321.337 72.2639 321.649C71.7699 321.961 71.2152 322.117 70.5999 322.117C70.0626 322.117 69.5902 322.013 69.1829 321.805C68.7842 321.588 68.4636 321.311 68.2209 320.973V322H66.4009V312.38H68.2209V315.851ZM72.0299 318.373C72.0299 317.94 71.9389 317.567 71.7569 317.255C71.5836 316.934 71.3496 316.692 71.0549 316.527C70.7689 316.362 70.4569 316.28 70.1189 316.28C69.7896 316.28 69.4776 316.367 69.1829 316.54C68.8969 316.705 68.6629 316.947 68.4809 317.268C68.3076 317.589 68.2209 317.966 68.2209 318.399C68.2209 318.832 68.3076 319.209 68.4809 319.53C68.6629 319.851 68.8969 320.098 69.1829 320.271C69.4776 320.436 69.7896 320.518 70.1189 320.518C70.4569 320.518 70.7689 320.431 71.0549 320.258C71.3496 320.085 71.5836 319.838 71.7569 319.517C71.9389 319.196 72.0299 318.815 72.0299 318.373ZM77.0315 312.38V322H75.2115V312.38H77.0315ZM79.7526 313.94C79.432 313.94 79.1633 313.84 78.9466 313.641C78.7386 313.433 78.6346 313.177 78.6346 312.874C78.6346 312.571 78.7386 312.319 78.9466 312.12C79.1633 311.912 79.432 311.808 79.7526 311.808C80.0733 311.808 80.3376 311.912 80.5456 312.12C80.7623 312.319 80.8706 312.571 80.8706 312.874C80.8706 313.177 80.7623 313.433 80.5456 313.641C80.3376 313.84 80.0733 313.94 79.7526 313.94ZM80.6496 314.798V322H78.8296V314.798H80.6496ZM81.9798 318.386C81.9798 317.667 82.1271 317.03 82.4218 316.475C82.7251 315.912 83.1324 315.474 83.6438 315.162C84.1551 314.85 84.7184 314.694 85.3338 314.694C85.8451 314.694 86.2958 314.794 86.6858 314.993C87.0844 315.184 87.4051 315.431 87.6478 315.734V314.798H89.4808V325.432H87.6478V321.012C87.4051 321.324 87.0801 321.584 86.6728 321.792C86.2654 322 85.8061 322.104 85.2948 322.104C84.6881 322.104 84.1291 321.948 83.6178 321.636C83.1151 321.315 82.7164 320.873 82.4218 320.31C82.1271 319.747 81.9798 319.105 81.9798 318.386ZM87.6478 318.399C87.6478 317.957 87.5568 317.576 87.3748 317.255C87.1928 316.934 86.9544 316.692 86.6598 316.527C86.3738 316.362 86.0661 316.28 85.7368 316.28C85.4161 316.28 85.1084 316.362 84.8138 316.527C84.5278 316.692 84.2938 316.934 84.1118 317.255C83.9298 317.567 83.8388 317.944 83.8388 318.386C83.8388 318.828 83.9298 319.214 84.1118 319.543C84.2938 319.864 84.5278 320.106 84.8138 320.271C85.1084 320.436 85.4161 320.518 85.7368 320.518C86.0661 320.518 86.3738 320.436 86.6598 320.271C86.9544 320.106 87.1928 319.864 87.3748 319.543C87.5568 319.222 87.6478 318.841 87.6478 318.399ZM98.0573 314.798V322H96.2243V321.09C95.9903 321.402 95.6827 321.649 95.3013 321.831C94.9287 322.004 94.5213 322.091 94.0793 322.091C93.516 322.091 93.0177 321.974 92.5843 321.74C92.151 321.497 91.8087 321.146 91.5573 320.687C91.3147 320.219 91.1933 319.664 91.1933 319.023V314.798H93.0133V318.763C93.0133 319.335 93.1563 319.777 93.4423 320.089C93.7283 320.392 94.1183 320.544 94.6123 320.544C95.115 320.544 95.5093 320.392 95.7953 320.089C96.0813 319.777 96.2243 319.335 96.2243 318.763V314.798H98.0573ZM106.548 318.243C106.548 318.503 106.531 318.737 106.496 318.945H101.231C101.274 319.465 101.456 319.872 101.777 320.167C102.098 320.462 102.492 320.609 102.96 320.609C103.636 320.609 104.117 320.319 104.403 319.738H106.366C106.158 320.431 105.759 321.003 105.17 321.454C104.581 321.896 103.857 322.117 102.999 322.117C102.306 322.117 101.682 321.965 101.127 321.662C100.581 321.35 100.152 320.912 99.8401 320.349C99.5367 319.786 99.3851 319.136 99.3851 318.399C99.3851 317.654 99.5367 316.999 99.8401 316.436C100.143 315.873 100.568 315.439 101.114 315.136C101.66 314.833 102.288 314.681 102.999 314.681C103.684 314.681 104.295 314.828 104.832 315.123C105.378 315.418 105.798 315.838 106.093 316.384C106.396 316.921 106.548 317.541 106.548 318.243ZM104.663 317.723C104.654 317.255 104.485 316.882 104.156 316.605C103.827 316.319 103.424 316.176 102.947 316.176C102.496 316.176 102.115 316.315 101.803 316.592C101.5 316.861 101.313 317.238 101.244 317.723H104.663ZM110.229 312.77L110.021 319.049H108.487L108.266 312.77H110.229ZM109.293 322.091C108.964 322.091 108.691 321.991 108.474 321.792C108.266 321.584 108.162 321.328 108.162 321.025C108.162 320.722 108.266 320.47 108.474 320.271C108.691 320.063 108.964 319.959 109.293 319.959C109.614 319.959 109.878 320.063 110.086 320.271C110.294 320.47 110.398 320.722 110.398 321.025C110.398 321.328 110.294 321.584 110.086 321.792C109.878 321.991 109.614 322.091 109.293 322.091Z" fill="#1E1E1E"/>
<rect x="0.5" y="0.5" width="39" height="39" rx="19.5" fill="white"/>
<rect x="0.5" y="0.5" width="39" height="39" rx="19.5" stroke="#1E1E1E"/>
<path d="M18.113 17.2V15.523H21.246V25H19.374V17.2H18.113Z" fill="#1E1E1E"/>
<rect x="0.5" y="59.5" width="39" height="39" rx="19.5" fill="white"/>
<rect x="0.5" y="59.5" width="39" height="39" rx="19.5" stroke="#1E1E1E"/>
<path d="M17.5286 81.946C18.3606 81.2527 19.0236 80.6763 19.5176 80.217C20.0116 79.749 20.4232 79.2637 20.7526 78.761C21.0819 78.2583 21.2466 77.7643 21.2466 77.279C21.2466 76.837 21.1426 76.4903 20.9346 76.239C20.7266 75.9877 20.4059 75.862 19.9726 75.862C19.5392 75.862 19.2056 76.0093 18.9716 76.304C18.7376 76.59 18.6162 76.9843 18.6076 77.487H16.8396C16.8742 76.447 17.1819 75.6583 17.7626 75.121C18.3519 74.5837 19.0972 74.315 19.9986 74.315C20.9866 74.315 21.7449 74.5793 22.2736 75.108C22.8022 75.628 23.0666 76.317 23.0666 77.175C23.0666 77.851 22.8846 78.4967 22.5206 79.112C22.1566 79.7273 21.7406 80.2647 21.2726 80.724C20.8046 81.1747 20.1936 81.7207 19.4396 82.362H23.2746V83.87H16.8526V82.518L17.5286 81.946Z" fill="#1E1E1E"/>
<rect x="0.5" y="118.5" width="39" height="39" rx="19.5" fill="white"/>
<rect x="0.5" y="118.5" width="39" height="39" rx="19.5" stroke="#1E1E1E"/>
<path d="M16.8239 136.019C16.8672 135.152 17.1706 134.485 17.7339 134.017C18.3059 133.54 19.0556 133.302 19.9829 133.302C20.6156 133.302 21.1572 133.415 21.6079 133.64C22.0586 133.857 22.3966 134.156 22.6219 134.537C22.8559 134.91 22.9729 135.334 22.9729 135.811C22.9729 136.357 22.8299 136.821 22.5439 137.202C22.2666 137.575 21.9329 137.826 21.5429 137.956V138.008C22.0456 138.164 22.4356 138.441 22.7129 138.84C22.9989 139.239 23.1419 139.75 23.1419 140.374C23.1419 140.894 23.0206 141.358 22.7779 141.765C22.5439 142.172 22.1929 142.493 21.7249 142.727C21.2656 142.952 20.7109 143.065 20.0609 143.065C19.0816 143.065 18.2842 142.818 17.6689 142.324C17.0536 141.83 16.7286 141.102 16.6939 140.14H18.4619C18.4792 140.565 18.6222 140.907 18.8909 141.167C19.1682 141.418 19.5452 141.544 20.0219 141.544C20.4639 141.544 20.8019 141.423 21.0359 141.18C21.2786 140.929 21.3999 140.608 21.3999 140.218C21.3999 139.698 21.2352 139.325 20.9059 139.1C20.5766 138.875 20.0652 138.762 19.3719 138.762H18.9949V137.267H19.3719C20.6026 137.267 21.2179 136.855 21.2179 136.032C21.2179 135.659 21.1052 135.369 20.8799 135.161C20.6632 134.953 20.3469 134.849 19.9309 134.849C19.5236 134.849 19.2072 134.962 18.9819 135.187C18.7652 135.404 18.6396 135.681 18.6049 136.019H16.8239Z" fill="#1E1E1E"/>
<rect x="0.5" y="177.5" width="39" height="39" rx="19.5" fill="white"/>
<rect x="0.5" y="177.5" width="39" height="39" rx="19.5" stroke="#1E1E1E"/>
<path d="M16.3136 200.154V198.724L20.5646 192.64H22.6836V198.568H23.8276V200.154H22.6836V202H20.8636V200.154H16.3136ZM20.9806 194.59L18.3156 198.568H20.9806V194.59Z" fill="#1E1E1E"/>
<rect x="0.5" y="237.5" width="39" height="39" rx="19.5" fill="white"/>
<rect x="0.5" y="237.5" width="39" height="39" rx="19.5" stroke="#1E1E1E"/>
<path d="M22.8759 254.096H18.6639V256.319C18.8459 256.094 19.1059 255.912 19.4439 255.773C19.7819 255.626 20.1416 255.552 20.5229 255.552C21.2162 255.552 21.7839 255.704 22.2259 256.007C22.6679 256.31 22.9886 256.7 23.1879 257.177C23.3872 257.645 23.4869 258.148 23.4869 258.685C23.4869 259.682 23.2009 260.483 22.6289 261.09C22.0656 261.697 21.2596 262 20.2109 262C19.2229 262 18.4342 261.753 17.8449 261.259C17.2556 260.765 16.9219 260.119 16.8439 259.322H18.6119C18.6899 259.669 18.8632 259.946 19.1319 260.154C19.4092 260.362 19.7602 260.466 20.1849 260.466C20.6962 260.466 21.0819 260.306 21.3419 259.985C21.6019 259.664 21.7319 259.24 21.7319 258.711C21.7319 258.174 21.5976 257.766 21.3289 257.489C21.0689 257.203 20.6832 257.06 20.1719 257.06C19.8079 257.06 19.5046 257.151 19.2619 257.333C19.0192 257.515 18.8459 257.758 18.7419 258.061H16.9999V252.497H22.8759V254.096Z" fill="#1E1E1E"/>
<rect x="0.5" y="297.5" width="39" height="39" rx="19.5" fill="white"/>
<rect x="0.5" y="297.5" width="39" height="39" rx="19.5" stroke="#1E1E1E"/>
<path d="M21.4453 314.889C21.3586 314.525 21.207 314.252 20.9903 314.07C20.7823 313.888 20.479 313.797 20.0803 313.797C19.4823 313.797 19.0403 314.04 18.7543 314.525C18.477 315.002 18.334 315.782 18.3253 316.865C18.5333 316.518 18.8366 316.25 19.2353 316.059C19.634 315.86 20.0673 315.76 20.5353 315.76C21.0986 315.76 21.597 315.881 22.0303 316.124C22.4636 316.367 22.8016 316.722 23.0443 317.19C23.287 317.649 23.4083 318.204 23.4083 318.854C23.4083 319.469 23.2826 320.02 23.0313 320.505C22.7886 320.982 22.429 321.354 21.9523 321.623C21.4756 321.892 20.908 322.026 20.2493 322.026C19.348 322.026 18.6373 321.827 18.1173 321.428C17.606 321.029 17.2463 320.475 17.0383 319.764C16.839 319.045 16.7393 318.161 16.7393 317.112C16.7393 315.526 17.0123 314.33 17.5583 313.524C18.1043 312.709 18.9666 312.302 20.1453 312.302C21.0553 312.302 21.7616 312.549 22.2643 313.043C22.767 313.537 23.0573 314.152 23.1353 314.889H21.4453ZM20.1193 317.255C19.66 317.255 19.2743 317.389 18.9623 317.658C18.6503 317.927 18.4943 318.317 18.4943 318.828C18.4943 319.339 18.6373 319.742 18.9233 320.037C19.218 320.332 19.6296 320.479 20.1583 320.479C20.6263 320.479 20.9946 320.336 21.2633 320.05C21.5406 319.764 21.6793 319.378 21.6793 318.893C21.6793 318.39 21.545 317.992 21.2763 317.697C21.0163 317.402 20.6306 317.255 20.1193 317.255Z" fill="#1E1E1E"/>
<line x1="20.5" y1="39" x2="20.5" y2="59" stroke="#1E1E1E"/>
<line x1="20.5" y1="99" x2="20.5" y2="119" stroke="#1E1E1E"/>
<line x1="20.5" y1="158" x2="20.5" y2="178" stroke="#1E1E1E"/>
<line x1="20.5" y1="217" x2="20.5" y2="237" stroke="#1E1E1E"/>
<line x1="20.5" y1="277" x2="20.5" y2="297" stroke="#1E1E1E"/>
</svg>
