<svg width="147" height="27" viewBox="0 0 147 27" fill="none" xmlns="http://www.w3.org/2000/svg">
<path d="M28.7785 8.77058V5.84705H25.9006V2.92353C25.9006 1.31559 24.6056 0 23.0228 0H2.87785C1.29503 0 0 1.31559 0 2.92353V23.3882C0 24.9962 1.29503 26.3117 2.87785 26.3117H23.0228C24.6056 26.3117 25.9006 24.9962 25.9006 23.3882V20.4647H28.7785V17.5412H25.9006V14.6176H28.7785V11.6941H25.9006V8.77058H28.7785ZM23.0228 23.3882H2.87785V2.92353H23.0228V23.3882ZM5.75569 14.6176H12.9503V20.4647H5.75569V14.6176ZM14.3892 5.84705H20.1449V10.2323H14.3892V5.84705ZM5.75569 5.84705H12.9503V13.1559H5.75569V5.84705ZM14.3892 11.6941H20.1449V20.4647H14.3892V11.6941Z" fill="white"/>
<path d="M136.911 22.2005L132.446 4.58805H136.763L138.983 14.8496C139.066 15.1785 139.148 15.5814 139.23 16.0583C139.329 16.5188 139.427 16.9875 139.526 17.4644C139.625 17.9413 139.699 18.3688 139.748 18.7471H139.871C139.937 18.3688 140.011 17.9413 140.093 17.4644C140.176 16.971 140.258 16.4941 140.34 16.0337C140.422 15.5568 140.496 15.1621 140.562 14.8496L142.683 4.58805H147L142.56 22.2005H136.911Z" fill="#F4F4F4"/>
<path d="M117.779 22.2005V4.58805H129.619V8.28814H121.997V11.2976H129.299V14.9976H121.997V18.5004H129.619V22.2005H117.779Z" fill="#F4F4F4"/>
<path d="M101.262 22.2005V4.58805H106.59C108.284 4.58805 109.723 4.91695 110.907 5.57474C112.091 6.21609 112.995 7.16167 113.62 8.41148C114.261 9.66129 114.582 11.1989 114.582 13.0243C114.582 15.0141 114.237 16.6915 113.546 18.0564C112.872 19.4213 111.91 20.4573 110.66 21.1645C109.427 21.8551 107.955 22.2005 106.244 22.2005H101.262ZM106.294 18.6237C107.626 18.6237 108.613 18.1633 109.254 17.2424C109.895 16.3214 110.216 14.973 110.216 13.1969C110.216 12.0622 110.076 11.1249 109.797 10.3849C109.533 9.6284 109.131 9.06927 108.588 8.70749C108.045 8.3457 107.371 8.16481 106.565 8.16481H105.356V18.6237H106.294Z" fill="#F4F4F4"/>
<path d="M92.9585 22.4471C91.0837 22.4471 89.5379 22.0935 88.321 21.3864C87.1041 20.6628 86.1996 19.635 85.6076 18.303C85.032 16.971 84.7443 15.3923 84.7443 13.5669C84.7443 11.6429 85.0485 9.99015 85.6569 8.60878C86.2818 7.22741 87.2028 6.17494 88.4197 5.45137C89.6366 4.71135 91.1331 4.34134 92.9091 4.34134C93.9287 4.34134 94.8661 4.44823 95.7212 4.66202C96.5763 4.8758 97.341 5.13892 98.0152 5.45137L96.7325 8.95412C96.1899 8.67456 95.6307 8.46077 95.0552 8.31277C94.496 8.14832 93.9205 8.0661 93.3285 8.0661C92.4076 8.0661 91.6182 8.27166 90.9604 8.68278C90.3191 9.07746 89.8339 9.67769 89.505 10.4835C89.1761 11.2728 89.0117 12.2595 89.0117 13.4436C89.0117 14.4796 89.1432 15.3923 89.4064 16.1816C89.6859 16.971 90.097 17.5877 90.6397 18.0317C91.1989 18.4592 91.906 18.673 92.7611 18.673C92.9585 18.673 93.1722 18.6566 93.4025 18.6237C93.6491 18.5908 93.9123 18.5415 94.1918 18.4757V15.3183H92.1444V11.8895H98.0646V21.3864C97.1272 21.7647 96.2474 22.036 95.4252 22.2004C94.6194 22.3649 93.7971 22.4471 92.9585 22.4471Z" fill="#F4F4F4"/>
<path d="M75.627 22.4471C74.443 22.4471 73.4152 22.2498 72.5436 21.8551C71.672 21.4604 70.9567 20.8766 70.3975 20.1037C69.8384 19.3308 69.4191 18.3852 69.1395 17.267C68.86 16.1323 68.7202 14.8331 68.7202 13.3695C68.7202 11.3962 68.9668 9.74345 69.4602 8.41142C69.97 7.06294 70.7347 6.04336 71.7542 5.35268C72.7738 4.66199 74.0647 4.31665 75.627 4.31665C76.811 4.31665 77.8388 4.52221 78.7104 4.93333C79.582 5.32801 80.2973 5.9118 80.8565 6.68471C81.432 7.45762 81.8514 8.41142 82.1145 9.54611C82.3941 10.6644 82.5338 11.9471 82.5338 13.3942C82.5338 14.8249 82.3941 16.1076 82.1145 17.2423C81.8514 18.3605 81.4403 19.3061 80.8811 20.079C80.322 20.8519 79.6067 21.444 78.7351 21.8551C77.8635 22.2498 76.8275 22.4471 75.627 22.4471ZM75.627 18.747C76.2519 18.747 76.7453 18.5579 77.107 18.1797C77.4688 17.8014 77.7237 17.2094 77.8717 16.4036C78.0362 15.5978 78.1184 14.57 78.1184 13.3202C78.1184 11.5113 77.9375 10.1792 77.5757 9.32411C77.2304 8.46897 76.5808 8.04141 75.627 8.04141C75.0185 8.04141 74.5334 8.2223 74.1716 8.58409C73.8098 8.92943 73.5467 9.49678 73.3823 10.2861C73.2178 11.059 73.1356 12.0868 73.1356 13.3695C73.1356 14.6358 73.2096 15.6718 73.3576 16.4776C73.5221 17.267 73.7852 17.8425 74.147 18.2043C74.5252 18.5661 75.0185 18.747 75.627 18.747Z" fill="#F4F4F4"/>
<path d="M54.0528 22.2005V4.58805H58.3696V18.3771H65.5231V22.2005H54.0528Z" fill="#F4F4F4"/>
<path d="M37.6587 22.2005V4.58805H43.5788C45.7824 4.58805 47.3858 4.94984 48.389 5.67341C49.4085 6.39699 49.9183 7.47412 49.9183 8.90483C49.9183 10.0724 49.647 10.9769 49.1043 11.6182C48.5781 12.2596 48.0025 12.6707 47.3776 12.8516V12.9749C47.9038 13.1229 48.3807 13.3614 48.8083 13.6903C49.2523 14.0027 49.5976 14.4303 49.8443 14.973C50.1074 15.4992 50.239 16.1734 50.239 16.9957C50.239 18.081 49.9923 19.0102 49.499 19.7831C49.0056 20.556 48.3067 21.1562 47.4023 21.5838C46.5142 21.9949 45.4453 22.2005 44.1955 22.2005H37.6587ZM43.8255 18.7964C44.6477 18.7964 45.2398 18.5826 45.6016 18.155C45.9798 17.7275 46.1689 17.2341 46.1689 16.675C46.1689 16.2968 46.0867 15.9597 45.9222 15.6637C45.7578 15.3676 45.4947 15.1292 45.1329 14.9483C44.7875 14.7674 44.3271 14.677 43.7515 14.677H41.5561V18.7964H43.8255ZM43.6035 11.4949C44.3929 11.4949 44.9684 11.314 45.3302 10.9522C45.7084 10.574 45.8976 10.13 45.8976 9.62018C45.8976 9.11039 45.7084 8.71571 45.3302 8.43615C44.952 8.14014 44.3517 7.99214 43.5295 7.99214H41.5561V11.4949H43.6035Z" fill="#F4F4F4"/>
</svg>
