<svg width="189" height="37" viewBox="0 0 189 37" fill="none" xmlns="http://www.w3.org/2000/svg">
<path d="M53.7152 29V7.58H61.04C63.7665 7.58 65.7503 8.02 66.9914 8.9C68.2529 9.78 68.8837 11.09 68.8837 12.83C68.8837 14.25 68.548 15.35 67.8765 16.13C67.2254 16.91 66.5133 17.41 65.7401 17.63V17.78C66.3912 17.96 66.9813 18.25 67.5103 18.65C68.0596 19.03 68.4869 19.55 68.7921 20.21C69.1177 20.85 69.2804 21.67 69.2804 22.67C69.2804 23.99 68.9752 25.12 68.3648 26.06C67.7544 27 66.8897 27.73 65.7706 28.25C64.6719 28.75 63.3494 29 61.803 29H53.7152ZM61.3452 24.86C62.3626 24.86 63.0951 24.6 63.5427 24.08C64.0107 23.56 64.2446 22.96 64.2446 22.28C64.2446 21.82 64.1429 21.41 63.9394 21.05C63.736 20.69 63.4104 20.4 62.9628 20.18C62.5355 19.96 61.9658 19.85 61.2537 19.85H58.5374V24.86H61.3452ZM61.0706 15.98C62.0472 15.98 62.7593 15.76 63.207 15.32C63.6749 14.86 63.9089 14.32 63.9089 13.7C63.9089 13.08 63.6749 12.6 63.207 12.26C62.739 11.9 61.9963 11.72 60.979 11.72H58.5374V15.98H61.0706Z" fill="#F4F4F4"/>
<path d="M73.9991 29V7.58H79.3401V24.35H88.1909V29H73.9991Z" fill="#F4F4F4"/>
<path d="M100.692 29.3C99.2273 29.3 97.9556 29.06 96.8772 28.58C95.7988 28.1 94.9138 27.39 94.222 26.45C93.5302 25.51 93.0114 24.36 92.6655 23C92.3196 21.62 92.1466 20.04 92.1466 18.26C92.1466 15.86 92.4518 13.85 93.0622 12.23C93.693 10.59 94.6391 9.35 95.9006 8.51C97.1621 7.67 98.7593 7.25 100.692 7.25C102.157 7.25 103.429 7.5 104.507 8C105.586 8.48 106.471 9.19 107.162 10.13C107.875 11.07 108.393 12.23 108.719 13.61C109.065 14.97 109.238 16.53 109.238 18.29C109.238 20.03 109.065 21.59 108.719 22.97C108.393 24.33 107.885 25.48 107.193 26.42C106.501 27.36 105.616 28.08 104.538 28.58C103.459 29.06 102.178 29.3 100.692 29.3ZM100.692 24.8C101.465 24.8 102.076 24.57 102.523 24.11C102.971 23.65 103.286 22.93 103.47 21.95C103.673 20.97 103.775 19.72 103.775 18.2C103.775 16 103.551 14.38 103.103 13.34C102.676 12.3 101.872 11.78 100.692 11.78C99.9394 11.78 99.3392 12 98.8915 12.44C98.4439 12.86 98.1184 13.55 97.9149 14.51C97.7114 15.45 97.6097 16.7 97.6097 18.26C97.6097 19.8 97.7013 21.06 97.8844 22.04C98.0878 23 98.4134 23.7 98.861 24.14C99.329 24.58 99.9394 24.8 100.692 24.8Z" fill="#F4F4F4"/>
<path d="M122.136 29.3C119.816 29.3 117.904 28.87 116.398 28.01C114.892 27.13 113.773 25.88 113.041 24.26C112.329 22.64 111.973 20.72 111.973 18.5C111.973 16.16 112.349 14.15 113.102 12.47C113.875 10.79 115.015 9.51 116.52 8.63C118.026 7.73 119.877 7.28 122.075 7.28C123.336 7.28 124.496 7.41 125.554 7.67C126.612 7.93 127.558 8.25 128.392 8.63L126.805 12.89C126.134 12.55 125.442 12.29 124.73 12.11C124.038 11.91 123.326 11.81 122.594 11.81C121.454 11.81 120.478 12.06 119.664 12.56C118.87 13.04 118.27 13.77 117.863 14.75C117.456 15.71 117.253 16.91 117.253 18.35C117.253 19.61 117.415 20.72 117.741 21.68C118.087 22.64 118.596 23.39 119.267 23.93C119.959 24.45 120.834 24.71 121.892 24.71C122.136 24.71 122.4 24.69 122.685 24.65C122.99 24.61 123.316 24.55 123.662 24.47V20.63H121.129V16.46H128.454V28.01C127.294 28.47 126.205 28.8 125.188 29C124.191 29.2 123.174 29.3 122.136 29.3Z" fill="#F4F4F4"/>
<path d="M132.409 29V7.58H139.002C141.097 7.58 142.878 7.98 144.343 8.78C145.807 9.56 146.927 10.71 147.7 12.23C148.493 13.75 148.89 15.62 148.89 17.84C148.89 20.26 148.463 22.3 147.608 23.96C146.774 25.62 145.584 26.88 144.037 27.74C142.511 28.58 140.69 29 138.574 29H132.409ZM138.635 24.65C140.283 24.65 141.504 24.09 142.298 22.97C143.091 21.85 143.488 20.21 143.488 18.05C143.488 16.67 143.315 15.53 142.969 14.63C142.644 13.71 142.145 13.03 141.474 12.59C140.802 12.15 139.968 11.93 138.971 11.93H137.476V24.65H138.635Z" fill="#F4F4F4"/>
<path d="M152.846 29V7.58H167.495V12.08H158.065V15.74H167.099V20.24H158.065V24.5H167.495V29H152.846Z" fill="#F4F4F4"/>
<path d="M176.517 29L170.993 7.58H176.334L179.081 20.06C179.183 20.46 179.284 20.95 179.386 21.53C179.508 22.09 179.63 22.66 179.752 23.24C179.874 23.82 179.966 24.34 180.027 24.8H180.18C180.261 24.34 180.353 23.82 180.454 23.24C180.556 22.64 180.658 22.06 180.76 21.5C180.861 20.92 180.953 20.44 181.034 20.06L183.659 7.58H189L183.506 29H176.517Z" fill="#F4F4F4"/>
<path d="M41.7107 12.3333V8.22222H37.5396V4.11111C37.5396 1.85 35.6626 0 33.3686 0H4.17107C1.87698 0 0 1.85 0 4.11111V32.8889C0 35.15 1.87698 37 4.17107 37H33.3686C35.6626 37 37.5396 35.15 37.5396 32.8889V28.7778H41.7107V24.6667H37.5396V20.5556H41.7107V16.4444H37.5396V12.3333H41.7107ZM33.3686 32.8889H4.17107V4.11111H33.3686V32.8889ZM8.34214 20.5556H18.7698V28.7778H8.34214V20.5556ZM20.8553 8.22222H29.1975V14.3889H20.8553V8.22222ZM8.34214 8.22222H18.7698V18.5H8.34214V8.22222ZM20.8553 16.4444H29.1975V28.7778H20.8553V16.4444Z" fill="#FF561D"/>
</svg>
