<svg width="41" height="38" viewBox="0 0 41 38" fill="none" xmlns="http://www.w3.org/2000/svg">
<path d="M41 12.4952V8.33016H36.9V4.16508C36.9 1.87429 35.055 0 32.8 0H4.1C1.845 0 0 1.87429 0 4.16508V33.3206C0 35.6114 1.845 37.4857 4.1 37.4857H32.8C35.055 37.4857 36.9 35.6114 36.9 33.3206V29.1556H41V24.9905H36.9V20.8254H41V16.6603H36.9V12.4952H41ZM32.8 33.3206H4.1V4.16508H32.8V33.3206ZM8.2 20.8254H18.45V29.1556H8.2V20.8254ZM20.5 8.33016H28.7V14.5778H20.5V8.33016ZM8.2 8.33016H18.45V18.7429H8.2V8.33016ZM20.5 16.6603H28.7V29.1556H20.5V16.6603Z" fill="#FF561D"/>
</svg>
