<svg width="16" height="16" viewBox="0 0 16 16" fill="none" xmlns="http://www.w3.org/2000/svg">
<path d="M4.42727 3.43836L3.2 2.21233L2.23864 3.17808L3.45909 4.40411L4.42727 3.43836ZM2.54545 7.31507H0.5V8.68493H2.54545V7.31507ZM8.68182 0.5H7.31818V2.52055H8.68182V0.5ZM13.7614 3.17808L12.8 2.21233L11.5795 3.43836L12.5409 4.40411L13.7614 3.17808ZM11.5727 12.5616L12.7932 13.7945L13.7545 12.8288L12.5273 11.6027L11.5727 12.5616ZM13.4545 7.31507V8.68493H15.5V7.31507H13.4545ZM8 3.89041C5.74318 3.89041 3.90909 5.73288 3.90909 8C3.90909 10.2671 5.74318 12.1096 8 12.1096C10.2568 12.1096 12.0909 10.2671 12.0909 8C12.0909 5.73288 10.2568 3.89041 8 3.89041ZM7.31818 15.5H8.68182V13.4795H7.31818V15.5ZM2.23864 12.8219L3.2 13.7877L4.42045 12.5548L3.45909 11.589L2.23864 12.8219Z" fill="white"/>
</svg>
