<svg width="26" height="26" viewBox="0 0 26 26" fill="none" xmlns="http://www.w3.org/2000/svg">
<rect width="26" height="26" rx="13" fill="#F4F4F4" fill-opacity="0.1"/>
<path d="M9.42727 8.43836L8.2 7.21233L7.23864 8.17808L8.45909 9.40411L9.42727 8.43836ZM7.54545 12.3151H5.5V13.6849H7.54545V12.3151ZM13.6818 5.5H12.3182V7.52055H13.6818V5.5ZM18.7614 8.17808L17.8 7.21233L16.5795 8.43836L17.5409 9.40411L18.7614 8.17808ZM16.5727 17.5616L17.7932 18.7945L18.7545 17.8288L17.5273 16.6027L16.5727 17.5616ZM18.4545 12.3151V13.6849H20.5V12.3151H18.4545ZM13 8.89041C10.7432 8.89041 8.90909 10.7329 8.90909 13C8.90909 15.2671 10.7432 17.1096 13 17.1096C15.2568 17.1096 17.0909 15.2671 17.0909 13C17.0909 10.7329 15.2568 8.89041 13 8.89041ZM12.3182 20.5H13.6818V18.4795H12.3182V20.5ZM7.23864 17.8219L8.2 18.7877L9.42045 17.5548L8.45909 16.589L7.23864 17.8219Z" fill="#F9F9F9"/>
</svg>
